<svg width="1008" height="673" viewBox="0 0 1008 673" fill="none" xmlns="http://www.w3.org/2000/svg">
<path d="M83.0269 563.235C87.5639 560.887 92.0311 558.391 96.6496 556.216C122.096 544.233 147.538 532.241 173.059 520.419C207.333 504.542 241.678 488.816 276.832 473.017C286.637 472.674 295.609 471.936 304.566 472.081C331.824 472.521 359.09 472.957 386.326 474.073C404.212 474.805 422.064 476.547 439.905 478.13C463.84 480.254 487.726 482.962 511.678 484.849C530.37 486.322 549.122 487.187 567.864 487.844C586.648 488.503 605.453 488.727 624.25 488.834C635.215 488.896 646.182 488.315 657.15 488.091C674.943 487.728 692.739 487.109 710.532 487.148C755.48 487.247 800.426 487.644 845.373 487.974C846.615 487.983 847.852 488.597 849.038 489.283C847.505 491.392 846.257 493.434 844.508 494.86C829.355 507.211 814.268 519.65 798.864 531.682C767.461 556.212 734.139 577.548 696.805 592.123C664.784 604.624 631.621 608.932 597.649 604.717C578.174 602.301 558.998 597.559 539.59 594.471C526.712 592.422 513.652 591.534 500.699 589.919C498.023 589.585 495.189 588.793 492.894 587.428C482.894 581.476 474.942 573.306 468.416 563.717C465.886 560.001 462.459 559.197 458.462 560.827C454.172 562.575 454.128 566.381 455.531 569.652C457.53 574.315 460.436 578.59 463.099 583.332C464.85 585.76 466.457 587.886 467.608 590.008C464.363 590.289 461.569 590.837 458.785 590.787C455.9 590.734 452.561 590.914 450.224 589.583C439.13 583.264 429.743 574.86 422.785 564.085C420.263 560.18 416.974 558.954 412.761 559.006C408.679 559.055 405.644 562.178 407.304 565.692C410.312 572.059 414.315 577.956 418.061 584.347C420.477 587.763 422.735 590.882 424.565 593.989C421.758 594.298 419.379 594.619 416.632 594.936C415.52 594.656 414.715 594.484 414.041 594.088C404.368 588.396 394.713 582.674 384.881 576.671C374.81 567.787 364.786 559.331 355.08 550.522C351.613 547.375 347.847 546.56 343.616 547.114C339.032 547.713 336.745 551.604 339.326 555.375C343.989 562.189 349.352 568.53 354.557 574.96C355.163 575.709 356.616 575.773 357.718 576.514C360.46 579.882 362.866 583.239 365.924 585.823C371.413 590.461 377.294 594.634 382.576 598.998C378.093 599.667 374.047 600.339 369.602 601.009C361.311 598.015 353.294 595.309 345.551 591.97C328.176 584.477 311.804 575.234 298.857 561.13C292.367 554.059 286.715 546.212 280.769 538.65C277.668 534.704 271.089 532.874 266.864 535.254C261.708 538.158 264.805 542.125 265.802 545.772C265.977 546.41 266.177 547.06 266.487 547.64C277.455 568.165 292.617 584.749 312.617 596.82C317.476 599.752 322.188 602.928 326.543 605.98C323.73 606.265 321.342 606.56 318.559 606.858C307.16 603.266 296.109 599.811 285.17 596.029C277.045 593.22 269.067 589.987 260.801 586.674C247.423 578.749 234.299 571.037 221.078 563.496C218.984 562.302 216.308 560.981 214.152 561.318C211.148 561.787 207.431 563.045 205.742 565.272C203.448 568.297 205.734 571.794 208.475 573.923C217.231 580.727 226.165 587.302 235.241 594.233C245.97 599.333 256.489 604.165 266.72 609.303C265.789 609.742 265.137 610.018 264.502 609.985C245.978 609.026 227.424 608.44 208.944 606.942C188.742 605.305 168.817 601.137 149.986 593.861C127.74 585.264 106.209 574.814 84.3945 565.108C83.7822 564.835 83.4759 563.875 83.0269 563.235Z" fill="#EBC58F"/>
<path d="M214.963 232.971C219.978 220.338 224.142 207.28 230.201 195.169C239.943 175.699 253.273 158.617 269.552 144.07C283.546 131.565 298.602 120.018 317.564 117.01C330.353 114.981 343.659 115.369 356.683 115.905C368.892 116.408 381.003 119.014 393.215 119.827C414.238 121.228 435.33 123.061 456.349 122.62C473.644 122.257 490.997 119.574 508.11 116.659C544.195 110.51 579.319 100.375 613.634 87.7826C647.324 75.4199 680.617 61.9773 714.072 48.9791C743.336 37.6096 772.218 25.0805 802.857 17.7352C813.211 15.2531 823.939 13.7718 834.569 13.2218C840.812 12.8987 847.196 15.3087 853.587 17.1132C852.832 18.4685 851.992 19.8517 851.186 19.8319C841.765 19.5993 832.047 20.4293 823.042 18.2981C817.491 16.9844 813.823 17.9596 809.871 20.549C792.599 31.8676 779.7 47.2587 769.583 65.0314C765.35 72.4697 761.871 80.3377 757.774 88.2198C755.306 92.1262 753.514 96.1438 750.856 99.469C729.851 125.748 708.891 152.068 687.483 178.017C674.614 193.617 660.907 208.525 647.708 223.857C643.705 228.506 638.697 231.137 632.913 232.498C623.403 234.735 613.922 237.168 604.322 238.94C581.23 243.203 558.098 247.265 534.938 251.144C519.943 253.655 504.876 255.744 489.825 257.907C487.515 258.239 485.117 257.953 482.759 257.953C519.207 237.874 556.841 220.893 592.306 199.707C590.67 199.232 589.204 199.065 587.787 199.258C576.491 200.803 565.203 202.41 553.914 204.008C540.333 205.931 526.754 207.869 513.172 209.789C498.438 211.872 483.701 213.935 468.968 216.021C455.876 217.874 442.785 219.735 429.697 221.614C414.968 223.729 400.25 225.93 385.512 227.979C372.245 229.823 358.978 231.702 345.672 233.221C330.066 235.003 314.436 237.447 298.782 237.73C278.224 238.101 257.624 236.839 237.061 235.867C229.666 235.518 222.328 233.971 214.963 232.971Z" fill="#F8DDB1"/>
<path d="M261.029 398.941C235.329 374.13 216.397 345.385 209.25 309.8C209.055 308.825 209.019 307.818 209.235 306.546C212.069 307.501 214.461 309.38 217.104 309.852C224.912 311.244 232.794 312.365 240.693 313.077C260.48 314.86 280.273 317.274 300.101 317.722C320.996 318.194 341.938 316.752 362.855 316.009C378.279 315.461 393.696 314.689 409.116 314.024C424.702 313.351 440.29 312.729 455.874 312.008C468.798 311.41 481.734 310.934 494.634 309.987C514.613 308.521 534.671 307.484 554.502 304.823C576.941 301.813 599.402 298.218 621.43 293.069C656.091 284.968 689.416 272.555 722.373 259.073C734.933 253.935 743.958 246.962 746.253 233.212C749.462 243.82 751.87 254.345 755.412 264.473C764.297 289.881 777.196 313.183 793.661 334.508C795.115 336.391 795.928 338.769 796.736 341.085C795.772 341.756 795.177 342.409 794.438 342.741C782.34 348.171 770.422 354.075 758.068 358.847C735.791 367.451 713.454 375.999 690.766 383.421C662.401 392.7 633.076 398.395 603.598 402.694C580.879 406.007 557.947 408.067 535.044 409.835C517.028 411.225 498.917 411.6 480.84 411.888C468.732 412.081 456.606 411.383 444.492 410.989C437.867 410.774 431.249 410.35 424.626 410.043C402.597 409.02 380.567 408.034 358.54 406.972C353.415 406.725 348.295 406.303 343.183 405.838C329.519 404.594 315.857 403.324 302.202 401.984C293.488 401.129 284.801 399.977 276.077 399.256C271.087 398.843 266.047 399.026 261.029 398.941Z" fill="#D3A76D"/>
<path d="M745.968 232.947C743.958 246.962 734.933 253.935 722.373 259.073C689.416 272.555 656.091 284.968 621.43 293.069C599.402 298.218 576.941 301.813 554.502 304.823C534.671 307.484 514.613 308.521 494.634 309.987C481.734 310.934 468.798 311.41 455.874 312.008C440.29 312.729 424.702 313.351 409.116 314.024C393.696 314.689 378.279 315.461 362.855 316.009C341.938 316.752 320.996 318.194 300.101 317.722C280.273 317.274 260.48 314.86 240.693 313.077C232.794 312.365 224.912 311.244 217.104 309.852C214.461 309.38 212.069 307.501 209.232 306.125C208.291 295.146 206.417 284.194 207.385 273.499C208.597 260.11 212.142 246.933 214.822 233.318C222.327 233.971 229.666 235.517 237.061 235.867C257.623 236.839 278.224 238.101 298.782 237.73C314.435 237.447 330.066 235.003 345.672 233.221C358.978 231.702 372.245 229.823 385.512 227.979C400.25 225.93 414.968 223.729 429.697 221.614C442.785 219.734 455.876 217.874 468.967 216.021C483.701 213.935 498.438 211.872 513.172 209.789C526.754 207.869 540.333 205.931 553.914 204.008C565.203 202.41 576.491 200.802 587.787 199.258C589.204 199.065 590.67 199.232 592.306 199.707C556.841 220.893 519.207 237.874 482.759 257.953C485.116 257.953 487.515 258.239 489.825 257.907C504.876 255.743 519.943 253.655 534.938 251.144C558.098 247.265 581.23 243.202 604.322 238.94C613.922 237.168 623.403 234.735 632.913 232.498C638.697 231.137 643.705 228.506 647.708 223.857C660.907 208.525 674.614 193.617 687.483 178.017C708.891 152.068 729.851 125.748 750.856 99.4688C753.514 96.1436 755.306 92.126 758.115 88.1788C760.16 86.6061 761.724 85.4009 762.998 83.9424C770.405 75.4593 777.671 66.8513 785.196 58.4748C786.167 57.3938 788.357 57.4079 789.851 57.2314C785.37 64.3738 780.267 70.8456 776.856 78.1112C772.179 88.0713 768.785 98.6338 764.655 109.245C763.95 110.929 763.353 112.282 762.925 113.686C758.036 129.729 755.892 146.185 755.229 163.018C754.262 164.535 753.252 165.897 753.07 167.362C751.891 176.879 750.863 186.416 749.842 195.953C748.523 208.282 747.257 220.616 745.968 232.947Z" fill="#EBC58E"/>
<path d="M849.091 488.929C847.852 488.597 846.614 487.983 845.373 487.974C800.426 487.643 755.48 487.246 710.532 487.148C692.739 487.109 674.943 487.727 657.15 488.091C646.182 488.315 635.215 488.896 624.25 488.834C605.453 488.727 586.648 488.502 567.864 487.844C549.122 487.187 530.37 486.322 511.678 484.849C487.726 482.962 463.84 480.254 439.905 478.13C422.064 476.547 404.212 474.805 386.326 474.072C359.09 472.957 331.824 472.521 304.566 472.081C295.609 471.936 286.637 472.673 277.175 472.987C279.926 471.007 283.2 469.089 286.415 467.079C299.085 459.157 311.736 451.207 325.031 443.461C333.11 444.096 340.552 444.563 347.997 444.969C360.583 445.655 373.168 446.37 385.759 446.949C401.842 447.688 417.929 448.353 434.017 448.958C445.14 449.376 456.268 449.687 467.395 449.957C483.186 450.34 498.983 451.057 514.77 450.896C554.356 450.494 593.938 449.711 633.52 449.011C646.98 448.773 660.439 448.385 673.894 447.948C679.359 447.771 684.818 447.339 690.271 446.92C711.238 445.308 732.203 443.676 753.165 442.008C765.546 441.023 777.964 440.329 790.285 438.836C809.161 436.549 827.959 433.622 846.805 431.082C868.981 428.092 890.964 424.215 912.463 417.847C913.762 417.462 915.524 418.641 917.017 419.431C916.914 419.929 916.905 420.12 916.809 420.242C897.749 444.392 876.126 466.111 853.494 486.863C852.354 487.909 850.574 488.256 849.091 488.929Z" fill="#BD9156"/>
<path d="M261.218 399.214C266.047 399.027 271.087 398.844 276.077 399.256C284.801 399.977 293.488 401.129 302.202 401.984C315.857 403.324 329.519 404.595 343.183 405.838C348.295 406.304 353.415 406.725 358.54 406.972C380.567 408.035 402.597 409.021 424.626 410.043C431.249 410.351 437.867 410.774 444.492 410.99C456.606 411.383 468.732 412.082 480.84 411.889C498.917 411.6 517.028 411.226 535.044 409.835C557.947 408.068 580.879 406.007 603.598 402.694C633.076 398.395 662.401 392.701 690.766 383.421C713.454 375.999 735.791 367.452 758.068 358.848C770.422 354.076 782.34 348.172 794.438 342.742C795.177 342.41 795.772 341.757 797.078 341.137C798.772 341.795 799.905 342.479 800.857 343.359C810.182 351.978 818.957 361.288 828.897 369.122C845.083 381.88 863.226 390.901 884.005 393.574C877.023 395.54 870.209 397.406 863.289 398.705C851.099 400.993 838.859 403.041 826.609 404.994C811.916 407.337 797.194 409.505 782.476 411.695C770.371 413.496 758.278 415.406 746.138 416.931C730.874 418.849 715.565 420.404 700.279 422.154C686.478 423.734 672.701 425.546 658.881 426.93C643.564 428.462 628.224 429.817 612.87 430.902C591.212 432.432 569.539 433.774 547.858 434.945C531.618 435.823 515.357 436.825 499.104 436.854C466.488 436.913 433.869 436.384 401.253 436.021C379.299 435.776 357.347 435.4 335.395 435.083C332.994 434.628 330.611 433.998 328.189 433.745C303.001 431.11 282.984 418.053 264.356 402.177C263.343 401.315 262.389 400.385 261.218 399.214Z" fill="#BF9257"/>
<path d="M335.125 435.309C357.347 435.4 379.299 435.776 401.253 436.021C433.869 436.384 466.488 436.913 499.104 436.855C515.357 436.825 531.618 435.823 547.858 434.945C569.539 433.774 591.212 432.432 612.869 430.902C628.224 429.818 643.564 428.463 658.881 426.93C672.701 425.546 686.478 423.734 700.279 422.154C715.565 420.404 730.874 418.849 746.138 416.932C758.278 415.406 770.371 413.496 782.476 411.695C797.194 409.505 811.916 407.337 826.609 404.994C838.859 403.041 851.099 400.993 863.289 398.705C870.209 397.407 877.023 395.54 884.456 393.546C913.352 394.901 934.146 373.574 938.691 356.671C938.182 356.84 937.716 356.9 937.362 357.132C936.388 357.766 935.417 358.418 934.524 359.159C918.814 372.195 900.97 376.058 881.285 371.191C862.431 366.529 846.443 356.497 832.17 343.665C805.404 319.601 786.478 290.132 773.479 256.777C764.575 233.929 758.276 210.406 756.885 185.769C756.455 178.149 756.008 170.531 755.568 162.912C755.892 146.186 758.036 129.73 762.925 113.687C763.353 112.283 763.95 110.93 765.056 109.261C769.094 107.513 772.753 106.411 775.945 104.52C780.839 101.62 785.412 98.1779 790.053 95.334C787.266 102.771 784.548 109.84 781.503 116.991C778.301 124.012 775.013 130.813 772.639 137.919C768.307 150.886 766.626 164.474 767.263 177.993C767.928 192.121 770.022 206.221 772.218 220.219C773.274 226.95 776.001 233.419 777.975 240.41C782.72 253.325 786.409 266.379 792.495 278.198C798.813 290.468 807.086 301.804 815.169 313.07C824.491 326.065 835.491 337.602 849.875 345.126C854.894 347.752 860.613 349.04 866.366 351.011C870.981 352.936 875.175 354.964 879.514 356.611C905.831 366.6 929.609 359.041 945.209 335.559C959.261 314.406 964.639 290.423 965.688 265.62C966.344 250.107 964.473 234.486 964.11 218.973C965.656 221.053 968.138 223.363 967.766 225.04C966.447 230.981 969.545 235.586 971.359 240.565C972.192 242.849 973.799 244.852 975.204 247.37C975.276 259.498 975.199 271.239 974.929 283.318C974.524 285.429 974.313 287.203 974.058 289.401C973.619 293.441 973.432 297.093 972.799 300.666C966.728 334.893 954.598 366.748 934.928 395.516C929.37 403.645 923.044 411.248 917.07 419.093C915.524 418.641 913.762 417.462 912.463 417.847C890.964 424.216 868.981 428.093 846.805 431.082C827.959 433.622 809.161 436.549 790.285 438.836C777.964 440.329 765.546 441.023 753.165 442.008C732.203 443.677 711.238 445.308 690.271 446.92C684.818 447.339 679.359 447.771 673.894 447.949C660.439 448.385 646.98 448.773 633.52 449.011C593.938 449.711 554.356 450.494 514.77 450.896C498.983 451.057 483.186 450.341 467.395 449.957C456.268 449.687 445.14 449.376 434.017 448.958C417.929 448.353 401.842 447.688 385.759 446.949C373.168 446.37 360.583 445.655 347.997 444.969C340.552 444.563 333.11 444.096 325.364 443.38C328.326 440.581 331.591 438.058 335.125 435.309Z" fill="#9C7544"/>
<path d="M917.017 419.432C923.044 411.248 929.37 403.645 934.928 395.516C954.598 366.748 966.728 334.893 972.799 300.666C973.433 297.093 973.619 293.441 974.44 289.359C979.309 288.251 983.752 287.609 988.194 286.968C987.744 309.619 982.983 331.523 976.339 353.039C962.818 396.823 938.677 434.385 908.252 468.205C866.1 515.059 819.527 557.016 767.992 593.285C741.521 611.915 713.577 628.094 682.68 638.588C655.835 647.705 628.624 648.814 601.015 642.844C598.26 642.249 595.479 641.776 592.293 640.734C585.611 636.301 579.112 632.704 573.128 628.392C558.122 617.578 542.872 607.917 523.842 605.235C505.331 602.625 489.047 593.632 473.035 584.418C469.871 582.597 466.698 580.7 462.954 583.031C460.436 578.59 457.53 574.315 455.531 569.652C454.128 566.38 454.172 562.575 458.462 560.826C462.459 559.197 465.886 560.001 468.416 563.717C474.942 573.306 482.894 581.476 492.894 587.427C495.189 588.793 498.023 589.585 500.699 589.919C513.652 591.534 526.712 592.422 539.59 594.471C558.998 597.559 578.174 602.301 597.649 604.717C631.622 608.932 664.784 604.624 696.805 592.123C734.139 577.548 767.461 556.212 798.864 531.682C814.268 519.649 829.355 507.21 844.508 494.86C846.257 493.434 847.505 491.392 849.038 489.282C850.574 488.256 852.354 487.909 853.494 486.864C876.126 466.111 897.749 444.392 916.809 420.242C916.905 420.12 916.915 419.929 917.017 419.432Z" fill="#D4A970"/>
<path d="M463.099 583.332C466.698 580.7 469.871 582.597 473.034 584.418C489.047 593.632 505.331 602.625 523.842 605.235C542.872 607.917 558.122 617.578 573.127 628.392C579.112 632.704 585.611 636.301 591.93 640.566C570.405 636.909 548.897 632.458 527.229 629.022C497.706 624.34 467.873 623.518 438.087 625.095C408.195 626.677 378.358 629.348 348.511 631.718C307.813 634.95 267.002 637.715 226.375 632.811C198.09 629.396 172.446 637.146 146.58 646.001C131.799 651.061 117.031 656.231 102.021 660.524C93.439 662.978 89.3751 660.474 87.176 653.323C117.873 648.6 145.358 635.847 172.936 625.026C172.734 621.771 166.014 625.931 168.416 620.012C180.134 618.665 191.422 616.528 202.76 616.217C214.641 615.891 226.562 617.631 238.479 617.899C253.29 618.232 268.114 617.992 282.932 617.956C283.807 617.954 284.681 617.574 286.227 617.212C284.99 616.3 284.422 615.67 283.716 615.394C278.161 613.224 272.58 611.12 267.008 608.996C256.489 604.165 245.97 599.333 235.508 593.952C244.052 591.25 252.538 589.097 261.024 586.943C269.067 589.987 277.045 593.22 285.17 596.029C296.109 599.81 307.16 603.265 318.716 607.191C325.725 610.682 331.798 615.3 341.147 613.266C336.443 608.8 332.366 606.177 326.968 605.991C322.188 602.927 317.476 599.752 312.617 596.819C292.617 584.748 277.455 568.165 266.487 547.64C266.177 547.06 265.977 546.41 265.802 545.771C264.805 542.125 261.708 538.158 266.864 535.253C271.089 532.874 277.668 534.704 280.769 538.649C286.715 546.212 292.367 554.059 298.857 561.13C311.804 575.234 328.176 584.477 345.551 591.97C353.294 595.309 361.311 598.015 369.762 601.32C376.81 604.623 383.299 607.614 389.968 610.688C391.488 604.233 389.41 601.177 383.011 599C377.294 594.633 371.413 590.46 365.924 585.823C362.866 583.239 360.46 579.882 358.217 576.46C363.435 576.35 368.194 576.752 372.961 576.926C376.987 577.074 381.022 576.958 385.053 576.959C394.713 582.674 404.368 588.396 414.041 594.087C414.715 594.484 415.52 594.656 416.783 595.25C424.949 599.848 431.992 605.467 440.824 607.128C441.034 606.749 441.244 606.37 441.454 605.991C435.967 601.994 430.48 597.997 424.993 594C422.735 590.882 420.477 587.763 418.328 584.061C420.208 583.481 422.223 582.931 423.709 583.585C429.293 586.042 435.085 588.327 440.106 591.706C452.832 600.27 467.89 600.931 481.957 604.931C482.637 605.125 483.455 604.836 484.644 604.735C478.856 599.596 473.46 594.804 468.063 590.013C466.457 587.886 464.85 585.759 463.099 583.332Z" fill="#BF9257"/>
<path d="M266.72 609.303C272.58 611.12 278.161 613.223 283.716 615.394C284.422 615.67 284.99 616.3 286.227 617.212C284.681 617.574 283.807 617.954 282.932 617.956C268.114 617.992 253.29 618.232 238.479 617.899C226.562 617.631 214.641 615.891 202.76 616.217C191.422 616.528 180.134 618.665 168.245 619.687C162.762 615.157 158.425 619.554 153.846 620.284C146.892 621.455 139.859 622.284 132.999 623.863C115.534 627.884 98.3134 633.29 80.6701 636.103C68.23 638.086 55.2434 637.133 42.5292 636.685C36.6994 636.479 32.7328 630.051 33.8385 625.058C34.5374 621.901 36.2044 620.676 39.4755 620.939C67.2355 623.175 93.4491 615.68 119.632 608.046C119.916 607.964 120.159 607.744 120.835 607.341C119.289 606.421 117.943 605.62 116.289 604.343C115.626 603.962 115.271 604.057 114.916 604.152C114.541 604.22 114.165 604.289 113.434 603.987C110.895 600.414 108.712 597.21 105.869 593.036C104.166 593.036 100.895 593.729 98.1309 592.844C95.2807 591.931 92.9509 589.437 90.3299 587.733C89.6729 587.306 88.772 587.254 87.9804 586.643C87.2569 584.262 86.9056 582.014 85.7465 580.319C82.2372 575.186 80.8273 569.575 80.9896 563.464C81.4396 563.381 81.8897 563.299 82.6833 563.226C83.4759 563.875 83.7822 564.835 84.3945 565.108C106.209 574.814 127.74 585.264 149.986 593.86C168.817 601.137 188.742 605.305 208.944 606.942C227.424 608.44 245.979 609.026 264.502 609.985C265.137 610.018 265.789 609.741 266.72 609.303Z" fill="#D7AC72"/>
<path d="M975.123 282.979C975.199 271.238 975.276 259.498 975.225 246.909C973.242 231.773 972.165 217.33 969.369 203.228C963.715 174.703 953.587 147.666 939.616 122.119C935.393 114.398 931.078 106.727 927.158 98.8985C930.776 97.1331 934.041 95.5026 937.305 93.8721C942.393 102.041 947.966 109.952 952.484 118.426C971.314 153.739 983.258 191.233 987.09 231.181C987.439 234.817 987.742 238.458 987.647 242.591C983.845 244.244 979.264 244.838 980.147 249.724C981.884 259.35 979.839 268.516 977.813 277.723C977.403 279.582 976.044 281.232 975.123 282.979Z" fill="#E3BB83"/>
<path d="M789.983 56.915C788.357 57.4082 786.167 57.394 785.196 58.475C777.671 66.8515 770.405 75.4595 762.998 83.9426C761.724 85.4011 760.16 86.6064 758.39 87.9695C761.871 80.3378 765.35 72.4698 769.583 65.0315C779.7 47.2588 792.599 31.8677 809.871 20.5491C813.823 17.9597 817.491 16.9845 823.042 18.2982C832.047 20.4294 841.765 19.5994 851.186 19.832C851.992 19.8518 852.832 18.4686 853.82 17.3955C866.797 21.006 877.204 28.9775 887.455 37.1775C890.297 39.4513 892.916 42.005 895.387 44.7242C888.141 42.2061 881.238 39.1303 874.121 36.6688C868.782 34.8221 863.17 33.7653 857.295 32.2858C855.46 31.9017 853.982 31.6792 852.562 31.2618C838.685 27.1843 825.521 28.1746 812.939 35.9336C803.903 41.5057 796.747 48.9522 789.983 56.915Z" fill="#EBC58F"/>
<path d="M87.9831 587.029C88.7719 587.254 89.6728 587.306 90.3298 587.733C92.9509 589.437 95.2806 591.93 98.1308 592.843C100.895 593.729 104.166 593.035 105.869 593.035C108.712 597.209 110.895 600.413 113.147 604.005C112.942 604.572 112.67 604.906 112.393 604.91C85.784 605.319 59.0556 606.309 33.7476 595.924C27.2034 593.239 21.2423 589.132 15.2505 585.357C19.6912 585.2 24.0455 584.714 28.0714 585.646C42.5976 589.011 57.019 592.631 72.1375 592.098C76.0769 591.959 78.1879 590.931 78.0271 586.79C80.3702 586.807 82.7133 586.824 85.8334 586.94C87.068 587.036 87.5256 587.032 87.9831 587.029Z" fill="#C6995D"/>
<path d="M857.68 32.3564C863.17 33.7649 868.782 34.8217 874.121 36.6684C881.238 39.1299 888.141 42.2056 895.513 45.03C909.403 56.2205 920.241 69.8131 930.708 83.7271C932.992 86.763 934.952 90.0423 937.183 93.5406C934.041 95.5021 930.776 97.1326 926.883 98.7263C917.575 87.4293 909.645 75.4694 899.987 65.1228C891.736 56.2847 881.644 49.1184 872.082 41.5737C867.629 38.0604 862.501 35.4023 857.68 32.3564Z" fill="#DCB379"/>
<path d="M87.9804 586.643C87.5256 587.032 87.068 587.035 86.2683 587.002C84.4585 585.712 83.1624 584.131 81.4951 583.261C70.9283 577.749 60.2388 572.471 49.6913 566.922C47.5442 565.793 45.8295 563.841 43.9014 561.509C44.0924 556.462 41.1735 556.966 38.4334 557.194C37.8234 554.776 36.3692 552.21 36.7617 549.968C37.9446 543.209 41.5641 541.895 47.2659 545.599C48.0984 546.14 48.89 546.744 49.6812 547.899C49.5459 550.491 48.5548 553.371 49.5033 554.327C51.2702 556.109 54.1124 556.964 56.6555 557.671C56.9952 557.765 58.1988 554.752 59.0023 553.178C66.127 556.46 73.2517 559.741 80.683 563.243C80.8273 569.575 82.2372 575.186 85.7465 580.319C86.9056 582.014 87.2569 584.262 87.9804 586.643Z" fill="#D4A970"/>
<path d="M77.6932 586.565C78.1879 590.931 76.077 591.959 72.1376 592.098C57.019 592.631 42.5976 589.01 28.0714 585.646C24.0456 584.714 19.6912 585.2 15.0409 585.076C9.61152 581.763 6.98294 573.881 9.10369 568.511C10.2924 565.501 11.9543 564.148 15.1095 566.527C33.5279 580.416 54.9916 584.816 77.6932 586.565Z" fill="#D4A970"/>
<path d="M154.092 620.533C158.425 619.553 162.762 615.157 167.837 619.699C166.014 625.931 172.734 621.771 172.936 625.025C145.358 635.847 117.873 648.6 87.1938 652.941C87.5716 651.273 87.9848 648.576 89.2281 648.114C112.498 639.469 135.866 631.089 160.147 622.315C157.686 621.666 156.011 621.223 154.092 620.533Z" fill="#D3A76D"/>
<path d="M974.929 283.317C976.044 281.232 977.403 279.582 977.813 277.723C979.839 268.516 981.884 259.349 980.147 249.724C979.264 244.838 983.845 244.244 987.598 243.046C988.082 257.383 988.198 271.76 988.254 286.552C983.752 287.609 979.309 288.251 974.485 288.934C974.313 287.202 974.524 285.429 974.929 283.317Z" fill="#DCB379"/>
<path d="M58.8327 553.065C58.1988 554.753 56.9952 557.766 56.6555 557.672C54.1124 556.965 51.2702 556.11 49.5033 554.328C48.5548 553.371 49.5459 550.492 49.8672 548.18C50.9597 548.364 51.8467 548.848 52.9155 549.985C54.8169 551.396 56.5365 552.154 58.2562 552.912C58.2562 552.912 58.6631 552.951 58.8327 553.065Z" fill="#D7AC72"/>
<path d="M38.6158 557.505C41.1734 556.966 44.0924 556.463 43.814 561.201C42.0932 560.372 40.4458 559.094 38.6158 557.505Z" fill="#D7AC72"/>
<path d="M58.0471 552.641C56.5365 552.154 54.8169 551.396 53.0703 550.252C54.6416 550.701 56.2398 551.535 58.0471 552.641Z" fill="#D4A970"/>
<path d="M115.25 604.211C115.271 604.057 115.626 603.962 116.121 604.077C116.036 604.281 115.81 604.275 115.25 604.211Z" fill="#C6995D"/>
<path d="M467.608 590.008C473.46 594.804 478.856 599.596 484.644 604.735C483.455 604.836 482.637 605.125 481.957 604.931C467.89 600.931 452.832 600.27 440.106 591.706C435.085 588.327 429.293 586.042 423.709 583.585C422.223 582.931 420.208 583.481 418.17 583.764C414.315 577.956 410.312 572.059 407.304 565.691C405.644 562.178 408.679 559.055 412.761 559.005C416.974 558.954 420.263 560.18 422.785 564.085C429.743 574.859 439.13 583.264 450.224 589.583C452.561 590.914 455.9 590.734 458.785 590.786C461.569 590.837 464.363 590.289 467.608 590.008Z" fill="#D3A76D"/>
<path d="M260.802 586.673C252.538 589.096 244.052 591.25 235.298 593.684C226.165 587.302 217.231 580.726 208.475 573.923C205.734 571.793 203.448 568.296 205.742 565.272C207.431 563.045 211.148 561.786 214.152 561.317C216.308 560.98 218.984 562.301 221.078 563.496C234.299 571.036 247.423 578.748 260.802 586.673Z" fill="#C6995D"/>
<path d="M384.881 576.67C381.022 576.958 376.986 577.073 372.961 576.926C368.194 576.751 363.435 576.349 358.174 576.1C356.616 575.772 355.163 575.708 354.557 574.959C349.352 568.529 343.989 562.188 339.326 555.374C336.745 551.603 339.032 547.712 343.616 547.113C347.847 546.559 351.613 547.375 355.08 550.522C364.786 559.33 374.81 567.786 384.881 576.67Z" fill="#C6995D"/>
<path d="M382.576 598.998C389.41 601.177 391.488 604.233 389.968 610.688C383.299 607.614 376.81 604.623 370.16 601.32C374.047 600.338 378.093 599.667 382.576 598.998Z" fill="#D3A76D"/>
<path d="M424.565 593.988C430.48 597.997 435.967 601.994 441.454 605.991C441.244 606.37 441.034 606.749 440.824 607.128C431.992 605.467 424.949 599.848 417.15 595.254C419.379 594.619 421.758 594.297 424.565 593.988Z" fill="#D3A76D"/>
<path d="M326.543 605.979C332.366 606.177 336.443 608.8 341.147 613.265C331.798 615.3 325.725 610.681 319.112 607.187C321.342 606.559 323.73 606.264 326.543 605.979Z" fill="#C6995D"/>
<path d="M755.229 163.019C756.008 170.531 756.455 178.149 756.885 185.768C758.276 210.406 764.575 233.929 773.479 256.777C786.478 290.131 805.404 319.6 832.17 343.665C846.443 356.497 862.431 366.528 881.285 371.19C900.97 376.058 918.814 372.194 934.524 359.159C935.417 358.418 936.388 357.766 937.362 357.131C937.716 356.9 938.182 356.84 938.691 356.671C934.146 373.573 913.352 394.901 884.577 393.19C863.226 390.9 845.083 381.879 828.897 369.122C818.957 361.288 810.182 351.978 800.857 343.359C799.905 342.479 798.772 341.795 797.381 340.968C795.928 338.769 795.115 336.392 793.661 334.508C777.196 313.183 764.297 289.881 755.412 264.474C751.87 254.345 749.462 243.821 746.253 233.212C747.257 220.616 748.523 208.282 749.842 195.953C750.863 186.417 751.891 176.88 753.07 167.362C753.252 165.897 754.262 164.535 755.229 163.019Z" fill="#DCB379"/>
<path d="M857.295 32.286C862.501 35.4029 867.629 38.0611 872.082 41.5744C881.644 49.1191 891.736 56.2854 899.987 65.1235C909.645 75.47 917.575 87.43 926.529 98.8619C931.078 106.727 935.393 114.398 939.616 122.119C953.587 147.666 963.715 174.703 969.369 203.228C972.165 217.33 973.242 231.773 975.076 246.522C973.799 244.852 972.192 242.849 971.359 240.564C969.545 235.586 966.447 230.98 967.766 225.04C968.138 223.363 965.656 221.053 963.973 218.64C963.003 216.483 962.53 214.722 962.089 212.954C958.68 199.299 956.109 185.369 951.702 172.045C942.21 143.345 928.777 116.537 909.865 92.729C901.505 82.2056 892.708 72.0953 880.939 64.5967C873.269 60.4367 866.055 55.8729 858.25 52.8148C835.917 44.0632 814.405 57.75 804.621 72.9207C799.598 80.3987 794.86 87.6822 790.121 94.9657C785.412 98.1778 780.839 101.62 775.945 104.52C772.753 106.411 769.094 107.513 765.243 108.954C768.785 98.6343 772.179 88.0718 776.856 78.1117C780.267 70.8461 785.37 64.3743 789.851 57.2319C796.747 48.9525 803.903 41.506 812.939 35.9339C825.521 28.1748 838.685 27.1845 852.562 31.2621C853.982 31.6794 855.46 31.9019 857.295 32.286Z" fill="#AE834D"/>
<path d="M790.053 95.3333C794.86 87.6816 799.598 80.3982 804.659 73.3324C805.904 74.4952 806.672 75.7163 807.777 76.3376C812.497 78.992 817.318 81.4695 822.037 84.3392C820.97 86.1065 819.969 87.546 818.568 88.9816C815.777 88.3723 813.394 87.7271 810.991 87.1715C807.89 86.4549 806.007 88.0923 807.2 90.792C808.411 93.5297 811.054 95.6341 813.043 98.3909C811.679 102.178 810.341 105.589 808.844 109.325C800.253 129.706 797.477 150.936 797.275 172.358C797.109 189.91 799.334 207.483 804.758 224.296C808.869 237.04 814.145 249.408 818.954 262.311C829.66 286.193 844.252 306.816 864.642 322.851C873.358 329.705 882.662 335.976 894.304 338.239C908.71 341.708 920.845 338.793 930.422 326.88C933.188 323.423 936.128 320.366 938.051 316.765C952.019 290.627 954.722 262.534 951.822 233.59C951.297 228.352 949.98 223.193 949.033 217.573C946.348 206.22 944.264 195.098 940.846 184.402C933.03 159.941 923.028 136.452 906.973 115.648C897.882 102.376 887.782 90.4447 874.826 81.1807C873.705 80.379 872.946 79.0705 872.3 77.7335C872.323 74.8971 871.994 72.3291 871.836 69.7506C871.753 68.4017 871.473 66.4146 872.187 65.8384C873.008 65.1766 874.843 65.8932 876.214 65.7624C877.864 65.605 879.49 65.1858 881.126 64.8799C892.708 72.0948 901.505 82.205 909.865 92.7285C928.777 116.536 942.21 143.345 951.702 172.044C956.109 185.368 958.68 199.299 962.089 212.953C962.53 214.722 963.003 216.482 963.599 218.58C964.473 234.485 966.344 250.106 965.688 265.62C964.639 290.423 959.261 314.405 945.209 335.558C929.609 359.04 905.831 366.599 879.514 356.61C875.175 354.963 870.981 352.935 866.209 350.713C850.375 341.061 837.261 329.247 825.956 315.413C813.621 300.318 803.343 283.936 795.852 265.896C791.859 256.28 788.088 246.572 784.169 236.495C781.334 219.314 777.719 202.626 776.042 185.745C774.842 173.672 775.633 161.29 776.664 149.141C777.581 138.328 780.047 127.647 781.83 116.908C784.548 109.839 787.266 102.77 790.053 95.3333Z" fill="#E3BB83"/>
<path d="M784.217 236.905C788.088 246.572 791.859 256.281 795.852 265.897C803.343 283.937 813.621 300.318 825.956 315.413C837.261 329.248 850.375 341.062 865.855 350.641C860.613 349.04 854.894 347.752 849.875 345.126C835.491 337.602 824.491 326.065 815.169 313.07C807.086 301.803 798.813 290.467 792.495 278.198C786.409 266.379 782.72 253.325 778.326 240.374C780.522 238.925 782.369 237.915 784.217 236.905Z" fill="#BF9257"/>
<path d="M784.169 236.494C782.369 237.915 780.522 238.924 778.322 239.97C776.001 233.418 773.274 226.949 772.218 220.218C770.022 206.22 767.928 192.12 767.263 177.993C766.626 164.474 768.307 150.885 772.639 137.918C775.013 130.812 778.301 124.011 781.503 116.99C780.047 127.647 777.581 138.328 776.664 149.141C775.633 161.289 774.842 173.672 776.041 185.745C777.718 202.626 781.334 219.314 784.169 236.494Z" fill="#BD9156"/>
<path d="M486.448 605.531C486.481 605.586 486.414 605.477 486.448 605.531Z" fill="#D3A76D"/>
<path d="M822.101 84.0118C817.318 81.4698 812.497 78.9924 807.776 76.338C806.672 75.7167 805.904 74.4955 804.943 73.1382C814.405 57.7499 835.917 44.063 858.25 52.8146C866.055 55.8727 873.269 60.4366 880.939 64.5965C879.49 65.1861 877.864 65.6053 876.214 65.7628C874.843 65.8936 873.008 65.1769 872.187 65.8388C871.473 66.4149 871.753 68.4021 871.836 69.7509C871.994 72.3295 872.323 74.8975 871.944 77.6967C870.59 77.522 869.875 77.118 869.157 76.7194C854.417 68.5366 842.442 67.4176 830.557 76.3092C827.518 78.5825 824.908 81.4287 822.101 84.0118Z" fill="#DCB379"/>
<path d="M818.902 261.944C814.145 249.409 808.869 237.04 804.758 224.296C799.334 207.484 797.109 189.911 797.275 172.358C797.477 150.936 800.253 129.707 809.286 109.325C813.598 109.677 817.31 110.353 821.006 111.407C820.627 113.502 820.263 115.218 819.642 117.204C817.924 122.381 816.16 127.219 815.055 132.204C810.757 151.598 809.763 171.185 811.956 190.952C814.27 211.815 818.837 232.084 827.661 251.22C831.96 260.544 836.617 269.702 840.76 278.926C838.991 277.83 837.561 276.763 836.164 275.655C830.405 271.092 824.655 266.516 818.902 261.944Z" fill="#BD9156"/>
<path d="M821.021 111.028C817.31 110.353 813.598 109.677 809.445 109.001C810.341 105.59 811.679 102.178 813.336 98.2265C815.425 94.7863 817.196 91.8861 818.967 88.9859C819.969 87.5464 820.97 86.1069 822.037 84.3397C824.908 81.4288 827.518 78.5825 830.557 76.3092C842.442 67.4176 854.417 68.5366 869.157 76.7194C869.875 77.1181 870.59 77.522 871.663 77.9607C872.946 79.0709 873.705 80.3794 874.826 81.1811C887.782 90.4452 897.882 102.376 906.621 115.615C901.86 113.63 897.414 111.33 892.981 109.019C892.993 109.009 892.984 109.023 892.879 108.795C892.5 108.38 892.227 108.193 891.621 107.956C886.554 103.6 881.82 99.2941 876.923 94.6862C872.423 91.7132 868.253 88.7053 863.715 86.4342C850.928 80.0352 837.844 83.6199 829.939 95.6517C826.69 100.596 823.978 105.892 821.021 111.028Z" fill="#C6995D"/>
<path d="M818.954 262.311C824.655 266.515 830.405 271.091 836.164 275.655C837.561 276.762 838.991 277.829 841.038 279.105C849.576 288.833 856.823 299.032 865.558 307.737C876.074 318.217 888.252 326.632 904.041 327.681C904.82 332.365 902.903 334.848 898.892 336.072C897.226 336.581 895.636 337.339 894.011 337.984C882.662 335.976 873.358 329.705 864.642 322.851C844.252 306.816 829.66 286.193 818.954 262.311Z" fill="#AE834D"/>
<path d="M949.029 217.998C949.98 223.194 951.297 228.353 951.822 233.591C954.722 262.535 952.019 290.628 938.051 316.766C936.128 320.366 933.188 323.424 930.066 326.721C927.491 326.142 925.53 325.678 923.66 324.971C922.374 324.485 921.215 323.663 920.144 322.687C928.492 315.753 933.118 306.898 936.356 296.793C937.105 295.528 937.641 294.498 938.03 293.416C944.379 275.746 944.605 257.413 943.914 238.551C943.282 231.747 942.636 225.374 942.39 219C944.87 218.665 946.95 218.332 949.029 217.998Z" fill="#BD9156"/>
<path d="M949.033 217.573C946.95 218.331 944.87 218.664 942.238 218.64C937.336 195.566 931.125 173.468 919.863 152.68C912.737 140.751 905.775 129.127 898.727 117.554C896.946 114.628 894.895 111.866 892.968 109.029C897.414 111.329 901.86 113.629 906.658 115.963C923.028 136.451 933.03 159.941 940.846 184.402C944.264 195.098 946.348 206.22 949.033 217.573Z" fill="#BF9257"/>
<path d="M920 322.99C921.215 323.662 922.374 324.485 923.66 324.971C925.53 325.677 927.491 326.141 929.769 326.869C920.845 338.793 908.71 341.708 894.304 338.24C895.636 337.339 897.226 336.581 898.892 336.073C902.903 334.849 904.82 332.365 904.46 327.615C909.928 325.755 914.964 324.372 920 322.99Z" fill="#9C7544"/>
<path d="M818.568 88.9815C817.196 91.8855 815.425 94.7857 813.361 97.8508C811.054 95.634 808.411 93.5296 807.2 90.7919C806.007 88.0922 807.89 86.4548 810.991 87.1714C813.394 87.727 815.777 88.3722 818.568 88.9815Z" fill="#DCB379"/>
<path d="M920.144 322.686C914.964 324.372 909.928 325.754 904.473 327.203C888.252 326.632 876.074 318.217 865.558 307.737C856.823 299.032 849.576 288.833 841.391 279.115C836.617 269.702 831.96 260.543 827.661 251.219C818.837 232.083 814.27 211.815 811.956 190.952C809.763 171.185 810.757 151.598 815.055 132.203C816.16 127.219 817.924 122.38 819.999 117.274C824.797 120.579 829.767 122.169 835.036 123.334C835.018 124.112 835.013 124.557 834.851 125.327C829.487 136.461 828.023 148.18 827.181 159.87C825.84 178.481 827.485 197.024 832.356 215.015C835.223 225.607 839.89 235.712 843.822 246.407C847.154 252.865 850.41 258.953 853.766 265.336C854.229 266.11 854.592 266.588 854.933 267.057C854.91 267.048 854.879 267.088 854.951 267.429C862.043 279.141 870.336 289.437 881.119 297.455C891.842 305.429 903.165 309.867 916.009 302.125C916.983 302.86 918.082 303.741 918.784 303.494C924.589 301.449 930.32 299.194 936.074 297.003C933.118 306.897 928.492 315.752 920.144 322.686Z" fill="#E3BB83"/>
<path d="M835.049 123.001C829.767 122.17 824.797 120.58 820.256 117.004C820.263 115.218 820.627 113.502 821.006 111.407C823.978 105.892 826.69 100.596 829.939 95.6518C837.844 83.62 850.928 80.0353 863.715 86.4342C868.253 88.7053 872.423 91.7132 876.497 94.6908C865.906 93.6134 865.906 93.6134 866 103.994C866.003 104.325 865.998 104.657 865.611 104.944C855.487 100.814 848.364 102.352 842.071 110.638C839.23 114.379 837.36 118.857 835.049 123.001Z" fill="#DCB379"/>
<path d="M865.996 104.988C865.998 104.656 866.003 104.325 866 103.993C865.906 93.6129 865.906 93.6129 876.66 94.9917C881.82 99.2936 886.554 103.6 891.733 108.181C892.446 108.645 892.715 108.834 892.984 109.023C892.984 109.023 892.993 109.008 892.981 109.019C894.895 111.866 896.946 114.628 898.727 117.554C905.775 129.127 912.737 140.751 919.471 152.678C913.612 150.285 908.013 147.572 902.223 144.766C906.8 155.513 911.382 166.274 915.624 176.984C907.515 168.295 899.747 159.657 892.373 151.01C894.089 150.839 895.41 150.678 897.424 150.433C895.589 147.571 894.288 145.492 892.938 143.446C889.974 138.953 886.984 134.477 884.367 130.033C886.594 130.709 888.459 131.345 891.668 132.442C884.434 120.56 876.736 111.351 865.996 104.988Z" fill="#D7AC72"/>
<path d="M892.879 108.795C892.715 108.835 892.446 108.646 892.066 108.231C892.227 108.193 892.5 108.38 892.879 108.795Z" fill="#BF9257"/>
<path d="M915.964 177.034C911.382 166.274 906.8 155.513 902.223 144.766C908.013 147.572 913.612 150.285 919.603 153.001C931.125 173.467 937.336 195.566 941.838 218.641C942.636 225.373 943.282 231.746 943.568 238.627C942.439 240.711 941.139 242.242 940.995 243.876C940.373 250.924 935.775 255.748 931.942 260.552C931.294 248.209 931.629 236.179 929.749 224.505C927.127 208.215 923.256 192.071 915.964 177.034Z" fill="#E3BB83"/>
<path d="M931.937 261.023C935.775 255.748 940.373 250.924 940.995 243.876C941.139 242.243 942.439 240.711 943.554 239.057C944.605 257.412 944.379 275.746 938.03 293.415C937.641 294.497 937.105 295.527 936.356 296.792C930.32 299.194 924.589 301.449 918.784 303.494C918.082 303.741 916.983 302.86 916.168 301.851C918.193 298.473 920.116 295.746 922.315 292.812C924.768 286.077 926.947 279.549 929.384 272.74C930.407 268.647 931.172 264.835 931.937 261.023Z" fill="#DCB379"/>
<path d="M843.747 246.037C839.89 235.712 835.223 225.607 832.356 215.015C827.485 197.024 825.84 178.481 827.181 159.869C828.023 148.18 829.487 136.461 835.227 125.368C838.856 126.079 841.951 127.073 844.991 128.435C842.935 137.545 840.935 146.287 838.927 155.453C838.596 161.329 837.996 166.783 838.024 172.234C838.056 178.52 838.015 184.916 839.124 191.063C841.117 202.096 843.172 213.231 846.637 223.855C850.222 234.848 855.514 245.284 859.685 255.97C856.956 254.568 854.564 253.217 852.256 251.735C849.384 249.892 846.58 247.941 843.747 246.037Z" fill="#BD9156"/>
<path d="M922.04 293.018C920.116 295.745 918.193 298.473 916.109 301.474C903.165 309.867 891.842 305.428 881.119 297.455C870.336 289.437 862.043 279.141 855.346 267.395C857.39 267.791 859.205 268.405 860.817 269.361C867.252 273.179 873.623 277.104 880.319 281.139C890.782 288.748 901.002 295.867 914.259 287.067C917.069 289.155 919.555 291.086 922.04 293.018Z" fill="#9C7544"/>
<path d="M845.046 128.067C841.951 127.073 838.856 126.079 835.385 125.044C835.013 124.557 835.018 124.112 835.036 123.334C837.36 118.857 839.23 114.378 842.071 110.638C848.364 102.352 855.487 100.814 865.611 104.943C876.736 111.351 884.434 120.56 891.668 132.442C888.459 131.345 886.594 130.709 884.169 129.769C880.071 126.526 876.651 123.43 872.974 120.677C862.825 113.077 854.591 114.514 847.422 124.939C846.681 126.017 845.84 127.026 845.046 128.067Z" fill="#C6995D"/>
<path d="M880.017 280.99C873.623 277.104 867.252 273.18 860.817 269.362C859.205 268.405 857.39 267.792 855.274 267.054C854.879 267.088 854.91 267.048 854.919 266.724C854.508 265.948 854.087 265.495 853.666 265.042C850.41 258.954 847.154 252.866 843.822 246.407C846.58 247.941 849.384 249.892 852.256 251.736C854.564 253.217 856.956 254.568 859.971 256.144C867.093 264.537 873.555 272.763 880.017 280.99Z" fill="#AE834D"/>
<path d="M853.766 265.337C854.087 265.495 854.508 265.948 854.942 266.734C854.592 266.589 854.229 266.11 853.766 265.337Z" fill="#9C7544"/>
<path d="M931.942 260.552C931.172 264.835 930.407 268.647 929.052 272.853C925.657 275.171 922.853 277.094 920.045 278.622C921.688 270.309 924.764 262.373 924.66 254.478C924.484 241.16 922.827 227.786 920.786 214.591C919.035 203.27 915.511 192.308 908.047 183.146C906.706 181.5 905.077 180.087 903.582 178.566C903.063 178.906 902.545 179.245 902.026 179.584C905.249 188.569 909.36 197.353 911.45 206.595C913.62 216.188 913.835 226.223 914.518 236.047C913.093 236.024 912.054 236.019 911.002 235.549C909.657 225.531 908.481 215.951 906.846 206.451C906.562 204.799 904.341 203.481 902.9 201.754C902.267 200.988 901.748 200.477 901.189 199.541C900.256 195.697 899.881 192.025 898.35 188.923C895.98 184.117 892.821 179.701 890.172 174.827C896.297 170.103 896.316 169.824 891.014 164.496C889.721 163.197 888.58 161.679 887.102 160.644C877.298 153.771 869.527 152.555 864.097 160.735C861.459 164.71 859.625 169.813 859.241 174.552C858.657 181.766 859.085 189.186 860.083 196.38C862.542 214.116 869.718 230.11 879.607 244.915C881.505 247.757 883.885 250.278 885.663 252.931C881.491 251.962 877.699 251.011 873.617 249.883C869.851 243.505 865.953 237.497 862.985 231.061C856.625 217.27 853.107 202.736 851.752 187.524C850.577 174.328 851.798 161.824 858.263 149.799C862.522 143.945 867.963 140.889 874.687 143.089C880.675 145.048 886.231 148.324 891.978 151.019C899.747 159.657 907.515 168.295 915.624 176.984C923.256 192.071 927.127 208.215 929.749 224.505C931.629 236.179 931.294 248.209 931.942 260.552Z" fill="#C6995D"/>
<path d="M892.373 151.01C886.231 148.325 880.675 145.048 874.687 143.089C867.963 140.889 862.522 143.945 857.882 149.795C856.461 149.761 855.582 149.703 854.942 149.282C848.954 145.333 845.994 146.042 842.385 152.059C841.644 153.294 840.106 154.052 838.935 155.03C840.935 146.287 842.935 137.545 844.991 128.435C845.84 127.026 846.681 126.017 847.422 124.939C854.591 114.515 862.825 113.077 872.974 120.677C876.651 123.431 880.071 126.527 883.807 129.73C886.984 134.477 889.974 138.954 892.938 143.447C894.288 145.493 895.589 147.571 897.424 150.433C895.41 150.678 894.089 150.84 892.373 151.01Z" fill="#E3BB83"/>
<path d="M920.049 279.019C922.853 277.095 925.657 275.171 928.793 273.135C926.947 279.55 924.768 286.078 922.315 292.812C919.555 291.087 917.069 289.156 914.418 286.778C916.185 283.894 918.117 281.456 920.049 279.019Z" fill="#BD9156"/>
<path d="M920.045 278.622C918.117 281.456 916.185 283.894 914.094 286.622C901.002 295.867 890.782 288.749 880.319 281.139C873.555 272.763 867.093 264.537 860.345 256.137C855.514 245.284 850.222 234.848 846.637 223.855C843.172 213.231 841.117 202.096 839.124 191.063C838.015 184.916 838.056 178.52 838.024 172.234C837.996 166.783 838.596 161.33 838.927 155.453C840.106 154.052 841.644 153.294 842.385 152.059C845.994 146.042 848.954 145.333 854.942 149.282C855.582 149.703 856.461 149.761 857.611 149.991C851.797 161.824 850.577 174.328 851.752 187.524C853.107 202.737 856.625 217.27 862.985 231.061C865.953 237.497 869.851 243.505 873.775 250.185C880.043 256.47 885.277 263.082 891.841 267.871C899.326 273.333 907.63 270.465 910.876 261.873C913.002 256.243 913.59 250.031 914.914 243.652C914.942 241.794 914.923 240.364 914.915 238.575C914.92 237.499 914.912 236.782 914.905 236.065C913.835 226.223 913.62 216.188 911.45 206.595C909.36 197.354 905.249 188.569 902.026 179.584C902.545 179.245 903.063 178.906 903.582 178.567C905.077 180.087 906.706 181.5 908.047 183.146C915.511 192.308 919.035 203.27 920.786 214.591C922.827 227.786 924.484 241.16 924.66 254.479C924.764 262.373 921.688 270.309 920.045 278.622Z" fill="#DCB379"/>
<path d="M886.042 252.948C883.885 250.279 881.505 247.758 879.607 244.916C869.718 230.11 862.542 214.116 860.083 196.381C859.085 189.187 858.657 181.767 859.241 174.552C859.625 169.813 861.459 164.71 864.097 160.736C869.527 152.555 877.298 153.771 887.102 160.644C888.58 161.68 889.721 163.198 891.014 164.496C896.316 169.825 896.297 170.104 889.773 174.787C884.432 173.132 880.506 174.217 877.297 178.237C876.713 178.969 875.761 179.76 874.901 179.861C871.231 180.293 870.883 182.822 871.017 185.641C871.719 200.384 874.764 214.568 882.324 227.385C884.504 231.08 888.058 233.965 891.166 237.506C896.647 241.081 900.808 240.506 902.329 234.807C904.08 228.243 904.228 221.178 904.455 214.31C904.589 210.231 903.535 206.111 903.015 202.01C904.341 203.482 906.562 204.8 906.846 206.451C908.481 215.952 909.657 225.532 910.999 235.952C909.82 240.914 908.932 245.126 907.379 249.077C904.443 256.55 898.047 258.688 890.945 254.996C889.379 254.182 887.68 253.624 886.042 252.948Z" fill="#D7AC72"/>
<path d="M890.982 237.221C888.058 233.964 884.504 231.08 882.324 227.384C874.764 214.568 871.719 200.384 871.017 185.641C870.883 182.822 871.231 180.292 874.901 179.861C875.761 179.759 876.713 178.969 877.297 178.236C880.506 174.217 884.432 173.131 889.597 175.079C892.821 179.701 895.98 184.118 898.35 188.923C899.881 192.025 900.255 195.698 900.832 199.693C899.686 201.605 898.444 202.841 898.103 204.29C896.995 209.001 896.309 213.811 895.286 218.545C893.938 224.789 892.425 230.997 890.982 237.221Z" fill="#9C7544"/>
<path d="M885.663 252.931C887.68 253.624 889.379 254.182 890.945 254.996C898.047 258.688 904.443 256.55 907.379 249.077C908.932 245.126 909.82 240.914 911.011 236.417C912.054 236.02 913.093 236.025 914.518 236.047C914.912 236.782 914.92 237.499 914.549 238.604C911.099 241.082 911.228 242.021 914.867 244.08C913.59 250.031 913.002 256.243 910.876 261.874C907.63 270.466 899.326 273.333 891.841 267.872C885.277 263.082 880.043 256.47 874.064 250.362C877.699 251.012 881.491 251.963 885.663 252.931Z" fill="#AE834D"/>
<path d="M891.166 237.505C892.425 230.997 893.938 224.789 895.286 218.545C896.309 213.811 896.995 209.001 898.103 204.29C898.444 202.841 899.686 201.605 900.872 200.119C901.748 200.477 902.266 200.988 902.9 201.754C903.535 206.111 904.589 210.23 904.455 214.31C904.228 221.177 904.08 228.243 902.329 234.806C900.808 240.505 896.647 241.08 891.166 237.505Z" fill="#AE834D"/>
<path d="M914.914 243.652C911.228 242.02 911.099 241.081 914.537 238.963C914.923 240.364 914.942 241.794 914.914 243.652Z" fill="#C6995D"/>
</svg>
