<svg width="989" height="907" viewBox="0 0 989 907" fill="none" xmlns="http://www.w3.org/2000/svg">
<path d="M793.367 24.1647C797.045 23.2139 795.178 25.9501 795.922 27.4538C807.662 19.848 819.072 11.6122 832.561 7.55125C834.13 9.87447 831.411 11.3988 832.665 13.5327C836.455 13.8723 839.912 12.0786 843.22 10.432C850.955 6.5823 859.351 5.23529 867.641 3.49481C869.245 3.15791 871.616 2.08492 872.374 5.35093C872.848 7.39451 874.964 6.3322 876.254 6.21103C889.018 5.01186 901.815 5.37881 914.602 5.32337C916.318 5.31592 918.239 4.66148 919.794 6.06999C919.866 8.10629 918.097 8.01613 917.032 8.41866C886.481 19.9686 857.361 34.8976 826.878 46.5785C820.648 48.9661 816.28 52.5008 812.491 57.9796C808.252 64.1088 802.386 68.9751 795.538 72.3808C773.473 83.3555 751.427 94.3696 729.347 105.314C726.424 106.762 724.039 108.641 722.316 111.45C716.049 121.67 709.737 131.862 703.393 142.035C701.358 145.298 701.573 148.787 702.444 152.197C704.544 160.416 706.986 168.549 709.084 176.768C710.223 181.228 712.797 182.307 717.197 181.931C731.359 180.721 744.305 175.363 757.493 170.77C759.665 170.014 761.916 168.691 764.243 169.739C769.117 171.933 772.691 169.797 776.481 166.947C798.849 150.13 821.104 133.148 844.644 117.965C847.233 116.296 848.17 114.22 848.698 111.109C851.758 93.0707 854.722 74.9548 863.709 58.5974C864.588 56.9961 865.634 55.4867 866.574 53.9176C867.093 53.0522 867.552 52.1515 867.63 52.0109C871.141 52.1026 870.47 55.2977 872.869 55.6195C874.826 52.5322 872.495 47.974 875.689 45.2986C877.844 45.4767 876.956 48.1281 879.273 48.4746C885.045 43.989 890.533 38.3512 898.093 34.7489C898.723 40.3147 895.295 45.2639 897.469 51.8093C903.812 44.6392 909.533 38.1715 915.156 31.8151C915.965 32.2608 916.439 32.362 916.499 32.5782C918.432 39.5401 918.378 39.4363 925.298 36.3184C933.336 32.6973 942.153 32.7075 950.658 31.3442C954.03 30.8038 957.451 29.5551 961.799 30.7149C954.841 41.8258 946.945 52.0347 941.473 63.3776C942.574 66.1981 945.708 64.9254 947.314 67.3558C944.018 70.8118 939.296 72.3066 935.564 75.1611C934.646 75.864 933.546 76.3255 932.558 76.9434C930.89 77.9861 928.482 78.7198 928.576 81.0081C928.69 83.7814 931.571 83.6305 933.456 84.437C934.356 84.8221 935.433 84.8709 936.287 86.4101C928.099 93.3314 917.863 97.5466 908.47 105.332C933.025 112.295 951.697 126.451 968.612 143.773C966.304 145.694 963.512 143.552 960.892 145.362C972.4 158.362 981.272 173.017 988.685 188.471C986.936 190.315 985.499 189.096 984.261 188.647C961.882 180.527 939.527 172.351 917.339 163.705C902.604 157.963 890.396 148.628 878.356 138.876C874.438 135.702 869.915 133.535 865.8 130.708C864.642 129.912 863.321 129.37 862.06 130.171C856.362 133.793 849.965 136.163 845.497 141.845C823.977 169.208 802.315 196.462 780.384 223.495C776.083 228.798 769.436 231.776 763.347 234.594C750.031 240.756 738.254 249.192 727.125 258.397C716.241 267.4 705.641 276.826 695.85 287.11C691.091 292.108 684.389 294.467 678.408 297.685C661.692 306.68 644.726 315.208 628.009 324.201C622.362 327.238 617.421 331.506 612.089 335.063C596.986 345.136 581.382 354.454 566.223 364.445C544.437 378.802 526.036 396.731 511.177 418.225C510.159 419.697 508.707 420.995 508.747 423.134C510.553 425.475 513.134 424.522 515.154 424.017C531.948 419.822 549.057 416.982 565.712 412.18C570.217 410.881 573.236 408.438 575.003 404.046C577.859 396.943 580.935 389.925 584.055 382.933C588.492 372.994 594.484 363.995 601.045 355.352C602.411 353.552 603.747 351.918 606.404 353.035C606.944 353.262 607.855 353.205 608.335 352.887C614.894 348.533 623.629 350.147 629.906 344.965C631.116 343.967 632.744 342.828 634.435 344.199C636.47 345.85 638.052 344.816 639.845 343.723C642.54 342.08 645.335 340.589 648.149 339.155C649.162 338.64 650.868 337.835 651.384 338.25C656.82 342.615 660.93 337.88 665.505 336.432C666.118 336.237 666.764 336.147 667.103 336.073C669.134 336.702 668.315 339.061 670.453 339.782C672.913 339.279 675.885 338.867 678.738 338.042C683.124 336.775 687.288 337.139 691.403 338.974C693.892 340.084 696.523 340.259 699.221 340.248C712.22 340.195 725.219 340.205 738.218 340.212C739.806 340.213 741.494 339.82 743.585 341.365C729.623 354.214 714.298 364.875 700.157 376.699C701.97 380.043 705.337 378.881 707.259 381.255C694.772 390.378 678.129 388.631 665.518 396.998C666.498 400.382 670.053 398.758 671.407 401.161C670.587 403.443 668.162 403.54 666.31 404.274C652.156 409.889 637.329 412.98 622.444 415.857C615.26 417.246 608.064 418.604 600.937 420.252C596.536 421.27 592.262 422.422 587.656 421.533C584.916 421.005 582.5 422.682 580.072 423.657C544.369 437.998 509.16 453.498 474.099 469.323C468.324 471.929 463.077 475.525 459.219 481.302C442.097 506.939 425.502 532.909 409.701 559.368C402.096 572.103 392.37 582.789 381.772 592.972C373.501 600.918 365.373 609.091 358.977 618.756C351.703 629.748 343.125 639.765 335.246 650.305C334.321 651.542 333.213 652.437 331.879 653.193C321.302 659.192 310.873 665.465 300.148 671.183C293.354 674.805 288.138 680.052 282.972 685.487C252.195 717.871 218.947 747.725 187.15 779.064C170.069 795.899 153.025 812.77 135.909 829.569C128.39 836.949 119.57 842.719 111.15 848.955C92.9187 862.459 76.6445 878.308 58.7869 892.249C54.1944 895.835 50.0663 900.277 44.9936 902.924C37.2972 906.94 28.8707 907.347 20.4371 904.418C14.2353 902.264 8.68624 898.995 3.26036 895.376C-0.11292 893.126 -0.915463 890.83 1.07181 887.07C5.09361 879.462 10.5398 872.944 16.2785 866.701C27.7776 854.19 39.5176 841.899 51.2489 829.605C53.1913 827.569 54.3938 825.472 54.6057 822.624C54.8893 818.814 55.5106 815.029 55.9724 811.231C56.2074 809.299 57.2232 806.988 55.0249 805.762C52.8642 804.556 51.3489 806.675 49.7801 807.739C43.166 812.226 36.6187 816.811 30.0401 821.35C29.124 821.982 28.3445 822.997 27.0363 822.665C25.6453 820.947 27.7365 819.448 27.1078 817.7C18.8931 813.28 13.3347 821.364 6.21558 822.75C5.94251 820.133 7.81661 819.223 8.99086 817.992C61.3416 763.139 114.31 708.872 168.967 656.327C203.298 623.321 237.657 590.285 273.775 559.16C281.465 552.532 286.149 543.122 291.551 534.53C302.014 517.887 312.414 501.205 322.748 484.482C325.441 480.124 330.094 479.28 334.259 478.23C345.941 475.287 351.761 465.411 359.022 457.523C361.841 454.461 361.848 448.809 363.134 444.337C365.48 436.184 367.616 427.962 370.266 419.909C371.463 416.271 371.294 413.258 369.431 409.969C364.177 400.694 359.063 391.34 354.006 381.956C352.909 379.921 351.23 378.685 349.437 377.478C329.88 364.321 312.143 348.961 295.175 332.67C294.002 331.544 292.486 330.63 292.304 328.506C295.487 326.243 299.335 327.604 302.81 326.869C308.223 325.725 308.741 325.111 305.891 320.548C299.71 310.65 293.815 300.592 288.418 290.247C287.513 288.511 284.987 286.552 287.471 284.602C289.809 282.766 292.186 280.091 295.925 281.93C297.679 282.792 299.462 283.815 301.609 283.728C303.435 281.992 303.645 280.053 302.419 277.911C300.543 274.635 300.844 271.303 301.772 267.779C304.232 258.444 307.879 249.617 312.536 240.133C320.775 249.453 328.491 258.18 336.267 266.974C338.506 264.812 336.783 262.261 338.943 259.394C352.424 277.651 360.809 297.976 369.57 320.053C376.015 306.464 385.325 296.586 395.642 287.684C397.925 289.274 396.712 291.712 399.181 293.599C403.216 280.117 412.947 271.765 424.414 264.367C425.369 268.436 422.262 271.734 423.721 276.157C437.943 268.182 452.086 260.777 466.696 254.367C467.007 254.699 467.317 255.032 467.628 255.365C464.582 259.989 461.538 264.615 458.489 269.238C457.296 271.046 456.098 272.85 454.89 274.648C451.231 280.091 451.399 280.486 458.894 281.495C452.974 289.127 446.391 295.472 440.213 301.966C442.491 305.275 445.957 302.362 448.358 305.305C444.609 309.54 440.851 314.033 436.821 318.267C432.918 322.366 428.849 326.325 424.646 330.116C418.844 335.349 418.761 335.257 425.521 339.261C421.375 344.626 415.629 348.1 410.565 352.253C399.621 361.23 388.672 370.242 376.795 377.989C372.754 380.625 372.304 383.221 375.276 386.901C378.31 390.657 381.308 394.475 383.941 398.513C386.334 402.184 388.277 402.461 391.766 399.556C412.638 382.182 433.779 365.13 454.66 347.766C469.897 335.095 485.03 322.288 499.9 309.189C507.221 302.74 516.505 302.888 525.008 300.534C529.879 299.186 534.461 297.728 538.752 295.003C564.63 278.57 590.599 262.283 616.492 245.874C621.855 242.476 622.005 241.246 617.319 236.87C600.382 221.057 584.131 204.569 568.36 187.602C566.689 185.805 564.526 184.349 563.661 181.227C567.89 178.685 572.828 179.054 577.423 178.392C583.167 177.564 584.258 175.956 581.074 171.082C573.602 159.648 565.969 148.319 558.398 136.949C557.394 135.44 556.372 133.942 555.462 132.593C556.045 130.193 558.684 130.433 559.431 128.688C562.13 122.377 566.039 119.129 572.948 123.244C573.094 123.331 573.507 122.973 573.791 122.818C567.346 103.382 571.873 83.3575 570.619 63.645C570.525 62.1642 570.738 60.6592 570.88 59.1722C570.904 58.9164 571.288 58.6948 571.929 57.9953C584.835 65.7953 596.532 75.5614 609.122 84.1561C612.077 80.8692 609.28 77.4378 610.361 73.4921C615.842 78.5239 619.901 84.0534 623.421 89.6478C627.387 95.9517 631.551 102.23 634.948 108.847C639.191 117.111 642.476 125.867 646.166 134.414C647.386 137.241 647.668 140.479 650.819 142.352C652.514 143.36 652.299 145.609 651.858 147.44C648.908 159.666 650.679 172.305 648.379 184.662C646.881 192.71 645.14 200.627 642.731 208.411C640.618 215.238 638.251 221.986 636.021 228.777C635.562 230.174 634.723 231.717 636.082 232.984C637.704 234.498 639.213 233.193 640.6 232.391C653.031 225.2 664.45 216.556 675.8 207.812C679.093 205.275 679.471 202.859 675.762 200.372C673.564 198.898 672.45 196.675 671.837 194.185C668.931 182.394 665.624 170.68 663.3 158.775C661.747 150.814 661.58 142.58 660.838 134.464C660.588 131.725 662.211 129.795 663.837 127.839C672.469 117.457 681.497 107.422 690.976 97.8214C694.037 94.7217 694.606 91.6808 694.185 87.5343C692.476 70.6637 693.649 53.9476 698.048 37.5207C698.285 36.6343 698.386 35.4893 699.677 35.1218C701.797 35.2246 701.32 38.378 704.316 38.5683C706.026 34.4901 707.856 30.1121 709.7 25.7398C710.281 24.3616 710.731 22.8904 711.533 21.6503C713.483 18.6327 715.318 18.7683 716.807 22.4583C728.64 11.5932 742.774 5.44267 758.451 0C756.57 9.80087 751.289 17.6031 750.242 26.4439C753.28 27.9114 754.927 24.569 757.847 25.7107C755.617 33.533 750.589 39.8711 746.492 46.2292C747.46 49.1158 750.051 47.6649 751.395 49.0428C752.343 50.6598 751.116 51.858 750.304 52.9965C745.19 60.1695 741.686 68.3823 735.942 75.1503C734.907 76.3699 733.375 77.745 734.667 79.5195C735.688 80.9214 737.428 80.4004 738.88 80.1965C744.607 79.3922 749.032 77.214 751.429 71.2179C759.654 50.6517 773.91 35.2727 793.367 24.1647Z" fill="white"/>
</svg>
