<svg width="904" height="904" viewBox="0 0 904 904" fill="none" xmlns="http://www.w3.org/2000/svg">
<path d="M659.021 61.968C670.477 64.7457 681.907 67.6334 693.394 70.2741C708.772 73.8091 724.194 77.1528 739.807 81.2273C736.043 84.9489 732.07 88.0218 727.864 90.7909C724.16 89.52 720.735 88.2182 717.196 87.7141C715.145 87.4219 712.508 87.8093 710.827 88.9298C703.123 94.0665 695.599 99.483 688.132 104.964C678.692 111.891 669.37 118.978 659.683 126.132C651.253 132.004 643.104 137.692 635.04 143.5C632.247 145.511 629.667 147.819 626.771 150.099C626.28 150.403 626.091 150.661 625.639 151.021C612.16 160.863 599.079 170.734 585.885 180.449C564.274 196.362 542.553 212.126 520.954 228.054C513.514 233.54 506.298 239.329 498.633 245.021C492.761 248.994 487.166 252.832 481.723 256.872C442.872 285.708 404.025 314.549 365.254 343.492C359.623 347.695 354.407 352.454 348.604 356.91C322.123 349.496 296.037 342.128 270.011 334.43C270.729 333.391 271.296 332.561 272.058 331.992C295.802 314.289 321.374 299.553 347.527 285.799C368.845 274.587 390.38 263.789 411.693 252.567C418.209 249.136 424.306 244.91 430.596 241.048C427.137 240.785 424.073 241.348 421.222 242.458C405.006 248.775 388.732 254.961 372.683 261.681C341.696 274.655 311.942 290.066 283.884 308.576C273.125 315.673 262.879 323.547 252.122 330.795C243.513 328.337 235.213 326.025 226.844 323.994C215.247 321.18 203.597 318.577 192.014 315.547C192.854 314.17 193.459 312.863 194.476 312.127C211.652 299.7 228.414 286.62 246.21 275.147C270.661 259.384 296.159 245.3 322.866 233.615C344.317 224.229 365.932 215.219 387.458 206.004C407.764 197.311 428.253 189.007 448.281 179.713C465.601 171.676 482.644 162.95 499.333 153.671C514.222 145.394 528.66 136.25 542.878 126.854C548.292 123.275 554.204 119.466 557.227 111.265C553.412 112.807 550.621 113.678 548.069 115.006C518.311 130.491 488.909 146.702 458.76 161.381C432.652 174.091 405.863 185.453 379.092 196.739C347.911 209.884 315.889 221.111 286.33 237.88C269.73 247.298 252.852 256.324 236.889 266.739C220.67 277.323 205.288 289.219 189.833 300.928C185.333 304.337 181.838 309.074 177.465 313.147C174.001 312.465 170.95 311.854 167.908 311.206C161.328 309.803 154.751 308.38 148.173 306.965C149.541 304.713 150.384 301.705 152.362 300.331C165.22 291.402 178.266 282.741 191.357 274.152C259.177 229.657 326.999 185.163 394.881 140.761C443.529 108.941 492.273 77.27 540.968 45.523C543.759 43.7038 546.451 41.7314 549.266 39.9537C553.676 37.1699 558.344 36.2235 563.566 37.5427C591.498 44.5986 619.461 51.5348 647.531 59.0131C646.776 60.499 645.825 61.4266 645.041 62.4783C635.25 75.6043 626.407 89.5843 615.471 101.671C602.498 116.008 587.752 128.744 573.723 142.12C569.891 145.774 565.878 149.237 561.341 153.335C563.044 153.646 563.579 153.921 563.962 153.781C565.205 153.329 566.394 152.728 567.6 152.177C587.495 143.093 604.478 129.715 619.67 114.41C630.46 103.541 639.567 90.9504 648.965 78.7737C652.926 73.6418 655.705 67.5975 659.021 61.968Z" fill="#B77837"/>
<path d="M728.096 91.0949C732.07 88.022 736.043 84.9491 740.037 81.5376C741.797 83.5279 744.787 85.7105 745.079 88.2088C747.557 109.373 749.571 130.592 751.656 151.801C752.121 156.532 751.279 160.735 746.436 163.202C745.583 163.637 745.294 165.181 744.507 166.613C742.55 167.522 740.52 167.604 739.164 168.603C726.892 177.644 714.67 186.757 702.564 196.019C683.75 210.413 665.001 224.893 646.294 239.428C630.467 251.726 614.696 264.099 598.98 276.54C582.617 289.492 566.344 302.558 550.041 315.586C538.136 325.099 526.234 334.615 514.356 344.16C498.344 357.027 482.396 369.973 466.347 382.793C450.948 395.094 435.514 407.353 419.988 419.493C399.644 435.4 379.194 451.172 358.567 466.663C358.219 459.551 358.093 452.778 358.011 445.548C358.034 441.727 358.013 438.363 358.025 434.666C358.025 433.888 357.994 433.443 358.008 432.532C358.015 415.285 357.964 398.505 357.947 381.726C357.943 377.808 358.059 373.889 358.115 369.748C358.06 369.222 357.925 368.965 357.719 368.604C357.733 368.455 357.571 368.203 357.911 368.229C364.167 363.992 370.181 359.859 375.983 355.447C413.666 326.789 451.339 298.119 488.928 269.338C498.272 262.184 507.295 254.609 516.786 247.193C522.876 243.017 528.788 239.057 534.38 234.688C542.062 228.685 549.502 222.372 557.393 216.124C564.196 211.511 570.741 207.087 577.089 202.397C597.909 187.011 618.637 171.499 639.443 156.094C653.972 145.337 668.56 134.661 683.141 123.974C698.114 112.998 713.11 102.053 728.096 91.0949Z" fill="#774A1B"/>
<path d="M840.073 184.924C841.442 187.551 843.873 190.122 844.015 192.813C845.236 216.054 846.228 239.311 846.809 262.575C846.913 266.773 844.82 271.026 843.356 275.651C841.005 277.178 838.708 277.969 837.138 279.503C833.348 283.209 829.952 287.313 826.301 291.166C807.567 310.941 788.782 330.669 770.056 350.452C759.784 361.303 749.578 372.218 739.366 383.127C725.072 398.397 710.794 413.682 696.522 428.973C682.819 443.656 669.161 458.381 655.431 473.04C639.655 489.886 623.824 506.68 608.013 523.494C602.324 529.543 596.609 535.566 590.933 541.627C571.756 562.104 552.638 582.636 533.33 602.989C531.818 604.583 529.01 604.949 526.843 605.431C526.837 599.998 526.793 595.019 526.791 589.613C526.59 586.715 526.217 584.248 526.124 581.771C525.35 561.173 524.669 540.571 523.867 519.974C523.602 513.178 523.509 506.324 522.487 499.626C521.837 495.367 523.352 492.553 525.933 489.842C527.185 488.527 528.788 487.553 530.092 486.28C560.344 456.741 590.59 427.194 620.808 397.621C637.935 380.859 655.013 364.045 672.438 347.146C673.673 346.33 674.662 345.703 675.481 344.902C693.171 327.61 710.842 310.298 728.518 292.991C731.367 290.202 734.231 287.43 737.074 284.636C748.75 273.159 760.421 261.676 772.389 250.028C774.464 248.369 776.337 246.973 778.006 245.366C784.246 239.357 790.39 233.25 796.623 227.234C807.753 216.493 818.92 205.791 830.366 194.916C833.797 191.481 836.935 188.203 840.073 184.924Z" fill="#6B4319"/>
<path d="M871.236 281.605C873.067 284.144 876.165 286.516 876.526 289.25C879.068 308.495 881.048 327.814 882.836 347.746C878.226 350.835 873.7 352.904 869.809 355.822C862.395 361.382 855.004 367.058 848.218 373.351C836.516 384.203 824.754 395.078 813.988 406.831C800.234 421.846 787.432 437.731 774.241 453.259C761.049 468.789 747.997 484.439 734.674 499.856C722.428 514.027 710.127 528.163 697.427 541.924C688.431 551.671 678.927 560.974 669.289 570.094C660.14 578.752 650.813 587.272 641.053 595.225C617.897 614.093 593.597 631.422 567.73 646.386C560.656 650.478 552.586 652.848 544.662 655.848C543.027 654.763 541.822 653.351 540.359 652.992C531.61 650.849 522.802 648.949 513.687 646.931C512.925 646.853 512.489 646.811 511.859 646.556C511.112 646.226 510.56 646.108 509.651 645.839C496.482 642.848 483.664 640.035 470.86 637.165C447.355 631.895 423.861 626.575 400.353 621.321C396.812 620.53 393.074 619.499 390.67 624.065C387.402 625.564 385.452 624.692 383.903 621.874C382.909 620.067 381.392 618.548 379.818 616.651C376.129 615.696 372.743 614.927 369.332 614.291C354.21 611.47 339.082 608.687 323.58 605.841C311.489 603.557 299.774 601.322 288.043 598.717C292.577 590.399 299.123 584.508 307.326 580.125C310.251 580.863 312.805 581.548 315.399 581.984C320.282 582.805 325.289 583.093 330.064 584.307C337.655 586.237 344.982 589.307 352.627 590.904C375.902 595.767 399.269 600.197 422.617 604.707C430.718 606.272 438.869 607.578 447.264 609.287C448.838 609.739 450.163 609.825 451.452 610.086C481.621 616.203 511.8 622.274 541.943 628.518C549.264 630.034 554.685 627.831 559.381 622.102C568.422 611.074 577.69 600.227 587.079 589.493C598.226 576.748 609.622 564.222 620.868 551.565C638.947 531.22 656.941 510.8 675.065 490.497C690.101 473.654 705.209 456.874 720.402 440.173C738.621 420.147 756.889 400.165 775.281 380.298C787.026 367.61 798.919 355.055 810.952 342.639C828.215 324.826 845.654 307.185 863.045 289.497C865.703 286.794 868.503 284.232 871.236 281.605Z" fill="#7D4E1F"/>
<path d="M771.995 172.979C781.125 174.128 790.255 175.276 799.684 176.981C798.843 178.916 797.908 180.557 796.531 181.634C783.756 191.625 770.819 201.411 758.095 211.466C740.166 225.636 722.34 239.937 704.545 254.275C695.279 261.741 686.173 269.407 676.65 277.025C673.449 279.303 670.555 281.495 667.743 283.785C652.068 296.552 636.405 309.334 620.753 322.129C608.948 331.78 597.154 341.445 585.377 351.13C571.296 362.709 557.202 374.274 543.181 385.926C531.455 395.671 519.815 405.521 508.156 415.346C497.89 423.997 487.606 432.626 477.419 441.369C473.274 444.928 468.762 448.302 465.494 452.583C460.811 458.716 457.116 465.603 452.554 472.167C440.219 469.993 428.35 467.704 416.423 465.767C414.49 465.453 412.303 466.702 409.807 467.164C403.908 468.381 401.06 463.479 396.943 461.464C399.757 458.728 402.382 456.193 405.216 453.916C417.369 444.148 429.592 434.466 441.774 424.735C459.786 410.347 477.768 395.922 495.795 381.554C508.768 371.215 521.846 361.01 534.785 350.63C556.005 333.608 577.09 316.419 598.343 299.438C617.001 284.531 635.689 269.654 654.582 255.047C683.718 232.521 712.979 210.156 742.334 187.918C748.353 183.359 754.275 179.277 751.21 170.364C757.192 171.031 763.174 171.699 769.649 172.787C770.759 173.132 771.377 173.055 771.995 172.979Z" fill="#8B5724"/>
<path d="M870.935 281.345C868.502 284.232 865.702 286.794 863.045 289.497C845.654 307.185 828.215 324.826 810.952 342.639C798.919 355.055 787.026 367.61 775.281 380.298C756.889 400.165 738.621 420.147 720.402 440.173C705.209 456.874 690.101 473.654 675.065 490.497C656.941 510.8 638.947 531.22 620.868 551.565C609.622 564.222 598.226 576.748 587.079 589.493C577.69 600.227 568.422 611.074 559.381 622.102C554.685 627.831 549.264 630.034 541.943 628.518C511.8 622.274 481.621 616.203 451.452 610.086C450.163 609.825 448.838 609.739 447.268 608.901C447.561 606.761 447.844 605.097 448.726 603.861C450.661 601.15 452.901 598.657 455.418 596.09C461.975 597.276 468.132 598.441 474.285 599.62C488.858 602.413 503.43 605.212 518.329 608.163C521.372 607.507 524.088 606.696 526.805 605.886C529.01 604.949 531.818 604.583 533.33 602.989C552.638 582.636 571.756 562.104 590.933 541.627C596.609 535.567 602.324 529.543 608.013 523.494C623.824 506.681 639.655 489.886 655.431 473.04C669.161 458.381 682.819 443.656 696.522 428.973C710.794 413.682 725.072 398.397 739.366 383.127C749.578 372.218 759.784 361.303 770.056 350.452C788.782 330.669 807.567 310.941 826.301 291.166C829.952 287.313 833.348 283.209 837.138 279.504C838.708 277.969 841.005 277.178 843.319 276.039C845.969 276.747 848.226 277.738 850.583 278.133C857.245 279.247 863.947 280.118 870.935 281.345Z" fill="#563614"/>
<path d="M742.14 560.412C741.295 561.539 740.45 562.665 738.949 563.94C737.579 565.221 736.865 566.353 736.151 567.485C735.314 568.587 734.477 569.69 732.991 570.943C731.612 572.225 730.882 573.356 730.152 574.488C729.557 575.273 728.961 576.059 727.724 576.954C726.12 578.555 725.157 580.048 724.194 581.541C720.661 585.549 717.127 589.557 712.929 593.793C709.206 593.406 706.169 592.567 703.079 592.269C701.5 592.117 699.828 592.934 698.198 593.313C698.712 594.953 698.943 596.77 699.828 598.177C700.566 599.351 702.195 599.926 703.195 600.987C703.983 601.824 704.416 602.996 705.007 604.019C703.525 605.91 702.044 607.801 699.971 609.688C696.781 606.396 694.184 603.108 691.449 599.646C686.494 606.124 685.508 606.226 681.726 601.364C676.374 603.625 681.63 606.06 681.823 608.932C680.005 609.524 678.23 610.102 676.284 610.735C675.974 613.304 675.665 615.862 675.227 619.499C677.153 617.105 678.056 615.502 679.384 614.421C683.759 610.86 684.652 611.263 687.055 616.306C687.826 617.925 689.654 619.041 690.998 620.388C687.652 624.431 684.307 628.474 680.554 632.278C677.193 629.792 674.312 627.43 671.187 625.455C670.821 625.224 668.268 627.044 668.156 628.069C667.672 632.503 670.88 636.135 676.14 637.789C674.415 639.981 672.69 642.173 670.509 644.194C668.615 643.782 667.179 643.541 665.742 643.3C666.515 644.665 667.289 646.031 668.062 647.396C664.296 651.922 660.529 656.448 656.262 660.819C651.983 658.82 648.206 656.976 644.009 654.928C647.607 651.278 645.987 648.746 642.272 646.749C641.277 646.214 640.097 644.933 639.372 645.162C633.934 646.881 631.644 644.282 631.263 638.778C629.911 639.854 629.187 640.525 628.371 641.053C627.406 641.678 626.418 642.362 625.34 642.702C621.83 643.808 618.515 641.732 619.38 638.646C620.689 633.98 618.048 633.997 614.962 634C613.306 634.002 611.65 633.999 610.148 633.696C610.656 633.047 610.965 632.633 611.37 632.363C632.77 618.099 652.603 601.888 671.303 584.257C672.331 583.287 673.757 582.738 674.96 582.359C674.704 583.348 674.116 584.172 674.328 584.56C675.757 587.184 677.119 589.919 679.047 592.149C679.606 592.796 682.23 592.369 683.398 591.629C685.832 590.088 688.086 588.162 690.086 586.079C690.953 585.176 691.011 583.496 691.436 582.169C690.184 582.317 688.857 582.254 687.697 582.664C686.05 583.245 684.526 584.174 681.688 585.58C684.193 580.047 682.073 578.68 678.141 578.699C678.961 577.664 679.625 576.918 680.311 576.193C698.373 557.125 716.753 538.345 734.391 518.892C746.289 505.77 757.047 491.619 768.485 478.071C782.28 461.731 796.304 445.584 810.136 429.275C825.41 411.265 842.092 394.658 859.579 378.815C865.217 373.707 870.242 367.919 875.913 362.851C878.218 360.792 880.309 356.967 884.637 359.091C885.781 367.311 886.916 375.531 888.074 383.749C889.037 390.582 885.285 395.004 881.025 399.818C859.532 424.104 838.348 448.663 817.167 473.223C799.678 493.503 782.377 513.945 764.922 534.255C760.151 539.806 755.126 545.139 749.586 550.853C748.357 552.265 747.759 553.397 747.161 554.528C746.624 555.286 746.088 556.043 744.922 556.943C743.576 558.195 742.857 559.304 742.14 560.412ZM655.79 633.073C654.179 634.563 652.567 636.054 650.956 637.545C651.146 638.087 651.335 638.628 651.525 639.17C653.278 638.941 655.791 639.312 656.578 638.318C657.416 637.258 656.621 634.907 655.79 633.073ZM666.104 622.598C667.657 621.813 669.21 621.029 670.763 620.244C669.642 618.797 668.521 617.35 667.401 615.903C666.94 616.135 666.48 616.367 666.019 616.599C666.019 618.35 666.019 620.101 666.104 622.598ZM692.574 589.397C691.794 589.284 690.349 589.008 690.331 589.083C689.811 591.187 689.437 593.326 688.92 596.094C693.685 595.409 692.971 592.584 692.574 589.397ZM661.799 605.394C661.794 605.786 661.79 606.179 661.786 606.572C661.949 606.574 662.254 606.586 662.255 606.575C662.285 606.184 662.287 605.791 661.799 605.394Z" fill="#7E4E20"/>
<path d="M514.013 646.966C522.802 648.948 531.61 650.849 540.359 652.992C541.822 653.351 543.027 654.763 544.726 656.226C545.765 660.502 546.428 664.24 547.066 668.436C547.736 682.286 548.369 695.682 549.141 709.07C550.37 730.378 551.691 751.68 552.625 772.934C549.833 767.358 547.128 761.93 544.995 756.286C537.022 735.194 526.295 716.03 508.246 701.726C487.337 685.156 464.141 675.756 436.975 679.029C420.769 680.981 408.188 689.442 398.105 701.862C388.934 713.157 384.57 726.798 379.908 740.266C367.16 737.381 354.407 734.516 341.665 731.605C333.27 729.686 324.891 727.7 316.254 725.153C317.555 722.66 318.983 720.64 320.676 718.873C330.406 708.726 340.796 699.141 349.798 688.39C358.577 677.906 366.205 666.418 373.87 655.055C379.327 646.967 384.008 638.355 389.456 629.982C391.19 630.134 392.525 630.17 393.809 630.444C402.366 632.272 410.868 634.388 419.47 635.96C434.391 638.686 449.325 641.419 464.34 643.525C478.052 645.448 491.874 646.613 505.667 647.897C507.043 648.025 508.557 646.661 510.007 645.99C510.56 646.108 511.112 646.226 511.87 646.88C512.462 647.796 512.849 648.176 513.236 648.555C513.495 648.026 513.754 647.496 514.013 646.966Z" fill="#C58543"/>
<path d="M39.6435 534.127C34.9992 528.7 35.8315 521.879 35.2007 515.549C32.5621 489.073 30.2439 462.566 27.7126 436.079C27.3061 431.825 28.0862 428.167 32.0686 425.082C36.1807 425.625 39.5552 426.211 42.8832 426.995C51.2632 428.969 59.6223 431.031 67.8079 433.384C65.9514 434.123 64.0111 435.293 62.6488 434.816C57.14 432.883 56.7413 435.91 56.6176 439.979C53.26 439.681 50.3238 439.371 47.3788 439.061C47.2707 440.431 47.1383 440.792 47.2344 441.077C57.1371 470.422 71.6546 496.626 97.561 515.1C119.956 531.071 143.684 533.116 168.547 521.688C183.612 514.764 195.96 504.087 206.59 491.629C211.867 485.446 218.236 479.653 220.393 471.065C222.973 471.712 225.154 472.426 227.377 472.969C234.254 474.65 241.147 476.265 248.023 478.31C248.119 481.438 248.245 484.146 252.248 484.362C252.591 490.493 252.771 496.241 252.58 501.998C243.079 507.899 233.469 513.174 224.927 519.822C210.826 530.797 197.285 542.508 183.799 554.243C180.132 557.433 174.255 558.977 173.547 565.243C165.043 563.461 156.933 561.844 148.887 559.952C115.24 552.041 81.612 544.046 47.7341 535.799C44.8751 535.053 42.2593 534.59 39.6435 534.127Z" fill="#CF914E"/>
<path d="M750.928 170.226C754.275 179.277 748.353 183.358 742.334 187.918C712.979 210.156 683.718 232.521 654.582 255.047C635.688 269.654 617.001 284.53 598.343 299.438C577.09 316.419 556.004 333.607 534.785 350.63C521.846 361.009 508.768 371.215 495.795 381.554C477.768 395.922 459.786 410.347 441.774 424.735C429.592 434.466 417.369 444.148 405.216 453.916C402.382 456.193 399.757 458.728 396.727 461.515C396.418 461.885 395.994 462.023 395.649 462.056C384.365 470.726 373.351 479.271 362.53 488.053C358.967 490.945 355.712 492.554 350.796 491.347C341.634 489.097 332.271 487.668 322.998 485.455C323.676 480.371 324.346 475.728 325.397 471.076C328.202 471.537 330.626 472.007 333.452 472.606C338.429 473.533 342.995 474.378 347.578 475.122C355.736 476.447 357.584 475.085 358.789 467.003C379.194 451.172 399.644 435.4 419.988 419.492C435.514 407.353 450.948 395.093 466.347 382.793C482.396 369.973 498.344 357.027 514.356 344.16C526.234 334.615 538.136 325.099 550.041 315.586C566.343 302.558 582.617 289.492 598.98 276.54C614.696 264.099 630.467 251.726 646.294 239.428C665 224.893 683.75 210.413 702.564 196.019C714.67 186.757 726.892 177.643 739.164 168.603C740.519 167.604 742.55 167.522 744.659 166.992C746.916 168.008 748.781 169.048 750.928 170.226Z" fill="#583814"/>
<path d="M134.732 356.755C135.351 354.356 136.543 351.944 136.49 349.56C136.269 339.528 135.676 329.504 135.888 319.241C138.407 319.724 140.21 320.62 142.115 321.137C162.673 326.723 183.126 332.77 203.862 337.602C216.994 340.662 230.554 341.887 243.982 344.268C244.073 345.052 244.103 345.502 243.82 346.205C243.535 348.061 243.311 349.716 243.632 351.258C246.226 363.737 246.246 363.713 235.442 370.322C219.611 380.006 207.164 392.843 200.466 410.327C196.643 420.305 194.126 430.784 190.764 441.307C189.073 441.468 187.608 441.513 186.21 441.228C173.121 438.568 160.044 435.851 146.813 432.834C145.057 429.035 143.452 425.553 141.885 421.648C140.951 410.381 139.903 399.543 139.026 388.691C138.241 378.979 137.701 369.248 136.874 359.54C136.791 358.558 135.476 357.681 134.732 356.755Z" fill="#D29551"/>
<path d="M552.973 772.984C551.691 751.68 550.37 730.378 549.141 709.07C548.369 695.682 547.736 682.286 547.45 668.441C549.139 667.704 550.566 667.692 551.674 667.093C564.798 659.99 577.931 652.897 590.941 645.59C597.419 641.951 603.651 637.875 609.994 633.998C611.65 633.998 613.306 634.001 614.962 634C618.048 633.997 620.689 633.979 619.38 638.646C618.515 641.732 621.83 643.807 625.34 642.701C626.418 642.362 627.406 641.678 628.371 641.053C629.187 640.525 629.911 639.853 631.263 638.777C631.644 644.282 633.934 646.881 639.372 645.162C640.097 644.932 641.277 646.214 642.272 646.748C645.987 648.746 647.607 651.278 644.009 654.928C648.206 656.976 651.983 658.819 655.959 660.978C644.484 675.148 632.884 689.065 621.122 702.845C602.003 725.244 582.843 747.61 563.527 769.84C560.65 773.151 556.831 775.643 553.16 778.161C552.906 776.2 552.94 774.592 552.973 772.984Z" fill="#7F4F21"/>
<path d="M248.962 728.296C245.948 729.048 242.727 730.878 239.957 730.348C232.074 728.84 224.375 726.371 216.29 723.645C214.328 708.52 212.171 694.195 207.341 680.283C200.587 660.832 190.315 644.443 171.953 633.876C163.219 628.85 154.427 623.697 146.565 617.462C140.815 612.903 133.666 607.998 136.1 598.496C136.92 595.291 138.031 592.16 139.403 589.003C144.312 590.012 148.791 591.238 153.35 591.966C164.119 593.687 174.893 595.478 185.728 596.652C194.124 597.561 202.616 597.646 211.07 597.904C212.021 597.933 213.01 596.705 214.383 596.047C222.831 598.03 230.877 600.025 239.006 602.38C240.09 605.329 241.729 607.858 241.979 610.518C242.848 619.776 243.306 629.075 243.796 638.365C245.275 666.426 246.686 694.49 248.162 722.551C248.263 724.475 248.688 726.382 248.962 728.296Z" fill="#C48442"/>
<path d="M249.304 728.15C248.688 726.381 248.263 724.475 248.162 722.551C246.685 694.49 245.275 666.426 243.796 638.365C243.306 629.075 242.848 619.776 241.979 610.518C241.729 607.858 240.09 605.329 239.316 602.239C244.444 597.114 249.346 592.49 254.054 588.049C253.036 586.08 252.445 584.939 252.037 583.569C252.873 582.917 253.527 582.493 254.566 582.055C261.39 581.778 265.053 576.901 269.471 573.289C281.876 563.149 294.17 552.87 306.707 542.897C312.869 537.995 319.472 533.646 325.934 529.473C326.94 540.586 327.887 551.275 328.461 561.97C325.747 563.306 323.075 564.27 321.131 566.036C316.236 570.484 311.67 575.294 306.972 579.959C299.123 584.508 292.577 590.399 287.882 599.036C286.868 602.517 285.106 605.368 285.287 608.09C286.046 619.473 287.445 630.811 288.502 642.176C290.035 658.645 291.474 675.123 292.953 691.597C282.784 700.373 272.659 709.202 262.424 717.9C258.289 721.415 253.912 724.645 249.304 728.15Z" fill="#563614"/>
<path d="M443.746 755.708C426.687 751.631 409.628 747.554 392.285 742.848C394.057 736.089 395.776 729.82 398.232 723.854C406.015 704.947 419.963 693.098 440.445 691.205C465.825 688.86 487.729 698.011 506.377 714.965C518.936 726.383 526.933 740.95 532.899 756.59C535.53 763.488 537.018 770.823 538.752 777.86C537.665 777.806 536.851 777.849 536.037 777.893C529.574 776.426 523.112 774.959 516.326 772.895C515.564 770.934 515.39 769.401 514.645 768.232C507.101 756.386 497.022 747.461 483.658 742.01C482.889 741.996 482.45 741.989 481.866 741.695C480.809 740.945 479.898 740.482 478.565 740.004C474.024 739.66 469.908 739.092 465.786 739.049C456.918 738.958 446.314 747.107 443.746 755.708Z" fill="#C58644"/>
<path d="M293.07 692.018C291.474 675.123 290.035 658.645 288.503 642.176C287.445 630.811 286.046 619.473 285.287 608.09C285.106 605.368 286.868 602.517 287.898 599.406C299.774 601.322 311.489 603.557 323.641 606.197C326.766 608.422 329.217 610.94 332.181 611.942C346.718 616.855 361.392 621.365 375.976 626.376C364.791 650.901 349.373 672.252 331.495 691.707C321.777 702.284 310.477 711.407 299.89 721.186C298.36 718.104 296.087 715.166 295.456 711.909C294.217 705.513 293.89 698.94 293.07 692.018Z" fill="#C58543"/>
<path d="M610.148 633.696C603.651 637.876 597.419 641.951 590.941 645.59C577.931 652.898 564.798 659.99 551.674 667.093C550.566 667.693 549.139 667.704 547.476 667.984C546.428 664.24 545.765 660.502 545.037 656.386C552.586 652.848 560.656 650.478 567.73 646.386C593.597 631.422 617.897 614.093 641.052 595.225C650.813 587.272 660.14 578.752 669.289 570.094C678.927 560.974 688.431 551.671 697.427 541.925C710.127 528.164 722.428 514.027 734.674 499.856C747.997 484.44 761.049 468.79 774.241 453.26C787.432 437.731 800.234 421.846 813.987 406.832C824.754 395.078 836.516 384.203 848.218 373.351C855.004 367.059 862.395 361.382 869.809 355.822C873.7 352.905 878.226 350.835 882.76 348.182C883.626 351.388 884.197 354.796 884.702 358.647C880.309 356.967 878.218 360.792 875.913 362.851C870.242 367.919 865.217 373.707 859.579 378.815C842.092 394.658 825.41 411.265 810.136 429.275C796.304 445.584 782.28 461.731 768.485 478.071C757.047 491.619 746.289 505.77 734.391 518.892C716.753 538.345 698.373 557.125 680.311 576.193C679.625 576.918 678.961 577.664 677.861 578.83C676.623 580.171 675.81 581.082 674.998 581.993C673.757 582.738 672.331 583.287 671.303 584.257C652.603 601.888 632.77 618.099 611.37 632.363C610.965 632.633 610.656 633.047 610.148 633.696Z" fill="#70461B"/>
<path d="M204.026 720.807C181.894 714.788 159.763 708.77 137.292 702.13C133.336 689.303 130.111 676.959 125.935 664.947C123.862 658.983 120.043 653.626 116.973 647.637C115.677 644.952 114.01 642.744 113.296 640.262C112.749 638.357 112.597 635.483 113.657 634.116C118.582 627.765 123.991 621.789 129.35 615.535C139 626.518 150.335 635.625 163.879 642.094C172.65 646.283 179.893 652.813 185.427 660.847C197.836 678.863 202.29 699.434 204.026 720.807Z" fill="#C58543"/>
<path d="M134.41 356.875C135.476 357.68 136.791 358.558 136.874 359.54C137.701 369.247 138.241 378.979 139.026 388.691C139.903 399.543 140.951 410.381 141.535 421.624C140.381 422.258 139.449 422.288 138.88 422.759C132.449 428.07 126.01 433.376 119.731 438.863C118.21 440.191 117.264 442.176 115.658 443.898C112.489 443.253 109.716 442.57 106.645 441.748C104.888 441.091 103.43 440.572 101.579 440.019C90.1207 437.675 79.0553 435.367 67.9899 433.058C59.6224 431.031 51.2632 428.969 42.8832 426.995C39.5552 426.211 36.1808 425.625 32.3983 424.962C33.4068 423.28 34.5405 421.115 36.3272 419.959C68.8676 398.899 101.487 377.96 134.41 356.875Z" fill="#AC6A2D"/>
<path d="M21.3049 662.025C20.457 654.01 19.6091 645.996 19.1562 637.476C48.6015 625.718 68.336 604.863 82.4341 577.071C78.2759 575.841 75.1318 574.911 71.9963 573.603C72.9925 570.184 73.98 567.142 75.2815 564.198C76.4364 564.457 77.2771 564.617 78.4919 564.839C81.2507 565.632 83.6355 566.363 86.0058 567.466C84.9974 570.577 84.0034 573.315 82.5552 577.305C97.392 580.279 111.706 583.149 126.016 586.442C124.859 606.585 112.538 619.768 98.6823 631.418C76.4279 650.129 50.1399 659.509 21.3049 662.025Z" fill="#C58644"/>
<path d="M21.2343 662.421C50.1398 659.509 76.4279 650.129 98.6823 631.418C112.538 619.769 124.859 606.585 126.065 586.06C126.846 582.785 127.574 580.315 128.62 577.952C131.587 582.254 135.117 583.966 139.979 582.368C139.666 584.847 139.338 586.921 139.009 588.995C138.031 592.16 136.92 595.29 136.1 598.495C133.667 607.998 140.815 612.903 146.565 617.462C154.427 623.697 163.219 628.85 171.953 633.876C190.315 644.443 200.587 660.832 207.341 680.282C212.171 694.195 214.328 708.52 215.975 723.429C212.205 722.974 208.436 722.1 204.346 721.017C202.29 699.434 197.836 678.863 185.427 660.847C179.893 652.813 172.65 646.283 163.879 642.094C150.335 635.625 139 626.519 129.35 615.535C123.991 621.789 118.582 627.766 113.657 634.117C112.597 635.483 112.748 638.357 113.296 640.262C114.01 642.744 115.676 644.952 116.746 647.926C113.373 648.716 110.186 648.858 106.724 648.799C104.473 644.761 102.082 644.462 98.4738 646.934C81.8096 658.348 63.85 666.75 43.7663 670.331C39.0551 671.171 34.585 673.364 30.004 674.934C23.7455 674.149 21.5917 671.197 21.2343 662.421Z" fill="#AE7337"/>
<path d="M676.995 276.983C686.173 269.407 695.279 261.741 704.545 254.275C722.34 239.937 740.166 225.636 758.095 211.466C770.819 201.411 783.756 191.625 796.531 181.634C797.908 180.557 798.843 178.916 800.037 177.177C811.598 178.414 823.119 179.93 834.601 181.692C836.428 181.973 838.084 183.364 839.946 184.583C836.935 188.203 833.797 191.482 830.193 194.599C827.113 193.06 824.602 191.393 821.845 190.421C820.378 189.903 817.857 189.914 816.88 190.828C799.826 206.782 782.938 222.914 765.715 239.151C762.611 241.864 759.807 244.432 756.641 246.961C748.87 242.131 747.882 242.585 744.797 251.638C744.463 252.619 743.082 253.371 742.035 253.96C736.394 257.134 730.717 260.242 725.026 263.325C723.879 263.946 722.377 265.061 721.458 264.742C718.093 263.575 713.442 265.223 711.563 260.452C711.345 259.897 709.798 259.343 709.144 259.573C706.183 260.616 703.322 261.94 699.412 263.59C702.032 264.495 703.823 265.114 705.615 265.733C705.576 266.317 705.537 266.9 705.498 267.484C702.229 267.484 698.959 267.443 695.691 267.51C694.755 267.529 693.832 267.932 692.89 268.04C687.295 268.68 686.915 274.069 684.345 277.439C681.627 281.004 679.849 280.949 676.995 276.983Z" fill="#A3652B"/>
<path d="M539.025 777.959C537.018 770.823 535.53 763.488 532.899 756.59C526.933 740.95 518.936 726.383 506.377 714.965C487.729 698.011 465.825 688.86 440.445 691.205C419.963 693.098 406.015 704.948 398.232 723.854C395.776 729.82 394.057 736.089 391.999 742.611C388.162 742.244 384.325 741.485 380.198 740.497C384.57 726.798 388.934 713.157 398.105 701.862C408.188 689.443 420.769 680.981 436.975 679.029C464.14 675.756 487.336 685.156 508.246 701.727C526.295 716.03 537.022 735.194 544.995 756.286C547.128 761.93 549.833 767.358 552.625 772.935C552.94 774.592 552.906 776.2 552.79 778.295C548.451 781.723 544.123 780.182 539.44 778.627C539.078 778.267 539.025 777.959 539.025 777.959Z" fill="#AE7337"/>
<path d="M17.335 624.025C15.2447 603.349 12.9135 582.692 11.3015 561.979C11.0332 558.532 13.8965 554.84 15.8293 551.344C18.0788 551.945 19.7871 552.575 21.5489 552.962C32.3581 555.337 43.1795 557.657 53.9591 560.361C53.0392 562.989 52.1571 565.251 51.0165 568.176C57.4944 570.172 63.7623 572.103 70.0239 574.42C69.859 575.778 69.9817 576.927 69.4997 577.698C61.1174 591.101 52.1834 604.17 38.7086 612.978C32.0306 617.344 24.487 620.385 17.335 624.025Z" fill="#C58644"/>
<path d="M30.2933 675.174C34.585 673.364 39.0551 671.171 43.7664 670.331C63.85 666.75 81.8096 658.347 98.4739 646.933C102.082 644.462 104.473 644.761 106.866 649.126C109.507 654.251 111.81 658.812 113.942 663.451C119.196 674.882 123.515 686.612 124.926 699.228C110.558 695.697 96.1712 692.24 81.827 688.614C64.7263 684.29 47.6625 679.821 30.2933 675.174Z" fill="#C58644"/>
<path d="M243.922 343.934C230.554 341.886 216.994 340.662 203.862 337.602C183.126 332.77 162.673 326.722 142.115 321.137C140.21 320.619 138.407 319.724 136.175 318.919C139.7 314.961 143.607 311.087 147.843 307.09C154.751 308.38 161.328 309.802 167.908 311.205C170.951 311.854 174.001 312.465 177.741 313.414C182.946 314.451 187.458 315.167 191.97 315.883C203.598 318.577 215.247 321.18 226.844 323.994C235.213 326.025 243.513 328.337 252.007 331.108C252.072 332.123 251.974 332.553 251.584 333.11C249.808 334.768 248.322 336.3 246.486 337.94C245.398 340.01 244.66 341.972 243.922 343.934Z" fill="#E6BE81"/>
<path d="M300.098 721.491C310.477 711.407 321.777 702.283 331.495 691.707C349.373 672.251 364.791 650.9 376.248 626.164C377.745 622.694 378.927 619.797 380.109 616.899C381.392 618.547 382.909 620.067 383.903 621.874C385.452 624.692 387.402 625.564 390.663 624.424C390.359 626.502 389.697 628.239 389.035 629.977C384.008 638.355 379.327 646.967 373.87 655.055C366.205 666.418 358.577 677.906 349.798 688.39C340.796 699.14 330.405 708.726 320.676 718.873C318.983 720.639 317.555 722.66 315.957 724.929C310.709 724.129 305.507 722.963 300.098 721.491Z" fill="#AE7337"/>
<path d="M658.709 61.7656C655.705 67.5978 652.926 73.6421 648.965 78.774C639.567 90.9507 630.46 103.541 619.67 114.41C604.478 129.715 587.495 143.094 567.6 152.178C566.394 152.729 565.205 153.329 563.962 153.782C563.579 153.921 563.044 153.647 561.341 153.336C565.878 149.237 569.891 145.774 573.723 142.12C587.752 128.744 602.498 116.009 615.471 101.671C626.407 89.5845 635.25 75.6045 645.041 62.4785C645.825 61.4268 646.776 60.4992 647.836 59.2319C651.48 59.8209 654.938 60.6919 658.709 61.7656Z" fill="#A0672E"/>
<path d="M17.2703 624.443C24.487 620.385 32.0306 617.344 38.7086 612.978C52.1834 604.17 61.1174 591.101 69.4997 577.698C69.9817 576.927 69.859 575.778 70.3499 574.411C71.1173 574.004 71.5525 573.992 71.9877 573.98C75.1318 574.911 78.2759 575.841 82.4341 577.071C68.336 604.863 48.6015 625.718 19.1667 637.024C18.2566 633.006 17.731 628.933 17.2703 624.443Z" fill="#B77837"/>
<path d="M125.204 699.467C123.515 686.612 119.196 674.882 113.942 663.451C111.81 658.812 109.507 654.251 107.14 649.327C110.186 648.858 113.373 648.716 116.786 648.285C120.042 653.626 123.862 658.983 125.935 664.946C130.111 676.959 133.336 689.303 136.999 701.938C133.19 701.479 129.336 700.592 125.204 699.467Z" fill="#BB7C3B"/>
<path d="M483.987 742.017C497.022 747.461 507.101 756.386 514.645 768.232C515.39 769.401 515.564 770.934 516.006 772.69C511.585 772.057 507.161 771.031 502.38 769.476C499.801 766.359 498.037 763.02 495.266 761.332C488.422 757.163 481.116 753.75 473.958 749.655C472.753 744.513 474.126 743.147 479.272 744.282C481.61 744.798 484 746.108 483.987 742.017Z" fill="#BB7C3B"/>
<path d="M473.996 750.033C481.116 753.75 488.422 757.163 495.266 761.332C498.037 763.02 499.801 766.359 502.038 769.284C486.536 765.951 471.021 762.28 455.364 758.059C459.802 750.802 466.378 749.11 473.996 750.033Z" fill="#C98C4A"/>
<path d="M53.9968 559.995C43.1795 557.657 32.3582 555.337 21.5489 552.962C19.7872 552.575 18.0788 551.945 16.1007 551.128C23.5963 545.416 31.3371 540.003 39.3607 534.358C42.2594 534.59 44.8752 535.054 47.5316 536.055C43.2699 539.365 40.119 542.814 41.071 548.423C41.9427 553.558 46.4197 554.38 50.3024 555.563C57.8929 557.876 65.5983 559.81 73.2021 562.082C74.9528 562.605 76.4851 563.86 78.1179 564.777C77.2771 564.617 76.4364 564.457 74.8738 564.156C67.4336 562.675 60.7152 561.335 53.9968 559.995Z" fill="#A0672E"/>
<path d="M473.958 749.655C466.378 749.11 459.802 750.802 455.085 757.826C451.413 757.451 447.88 756.759 444.046 755.887C446.314 747.106 456.918 738.958 465.786 739.049C469.908 739.092 474.024 739.66 478.624 740.346C480.074 741.129 481.042 741.555 482.011 741.982C482.45 741.989 482.889 741.996 483.658 742.01C484 746.107 481.61 744.798 479.272 744.282C474.126 743.146 472.753 744.513 473.958 749.655Z" fill="#AE7337"/>
<path d="M691.271 620.265C689.654 619.041 687.826 617.925 687.055 616.306C684.652 611.263 683.759 610.86 679.384 614.421C678.056 615.502 677.153 617.105 675.227 619.499C675.665 615.862 675.974 613.304 676.284 610.735C678.23 610.101 680.005 609.524 681.823 608.932C681.63 606.06 676.374 603.625 681.726 601.364C685.508 606.226 686.494 606.124 691.449 599.646C694.184 603.108 696.781 606.396 699.678 609.837C697.166 613.374 694.354 616.758 691.271 620.265Z" fill="#7F4F21"/>
<path d="M705.307 603.872C704.416 602.996 703.983 601.823 703.195 600.987C702.195 599.926 700.566 599.351 699.828 598.176C698.943 596.77 698.712 594.953 698.198 593.313C699.828 592.934 701.5 592.116 703.079 592.269C706.169 592.567 709.206 593.406 712.703 594.036C710.63 597.276 708.119 600.501 705.307 603.872Z" fill="#7F4F21"/>
<path d="M676.132 637.772C670.88 636.135 667.672 632.502 668.156 628.069C668.268 627.044 670.821 625.224 671.187 625.455C674.312 627.429 677.193 629.792 680.252 632.466C679.828 633.662 679.299 634.43 678.292 634.993C677.023 634.805 676.233 634.822 675.442 634.839C675.677 635.803 675.911 636.766 676.145 637.73C676.145 637.73 676.124 637.756 676.132 637.772Z" fill="#7F4F21"/>
<path d="M668.3 647.302C667.289 646.031 666.515 644.665 665.742 643.3C667.179 643.541 668.615 643.782 670.207 644.388C669.754 645.572 669.146 646.391 668.3 647.302Z" fill="#7F4F21"/>
<path d="M724.487 581.379C725.157 580.048 726.12 578.555 727.427 576.996C726.775 578.358 725.778 579.788 724.487 581.379Z" fill="#8B5724"/>
<path d="M676.4 637.682C675.911 636.766 675.677 635.803 675.442 634.839C676.233 634.822 677.023 634.805 678.036 635.125C677.724 636.186 677.189 636.91 676.4 637.682Z" fill="#7E4E20"/>
<path d="M730.446 574.329C730.882 573.356 731.612 572.224 732.716 571.062C732.307 572.079 731.523 573.125 730.446 574.329Z" fill="#7F4F21"/>
<path d="M736.442 567.324C736.865 566.353 737.579 565.221 738.662 564.05C738.266 565.062 737.499 566.113 736.442 567.324Z" fill="#7F4F21"/>
<path d="M742.434 560.265C742.857 559.303 743.575 558.194 744.659 557.047C744.259 558.045 743.494 559.082 742.434 560.265Z" fill="#7F4F21"/>
<path d="M747.451 554.385C747.759 553.396 748.357 552.265 749.293 551.065C749 552.079 748.37 553.16 747.451 554.385Z" fill="#7F4F21"/>
<path d="M538.752 777.86C539.025 777.959 539.078 778.267 539.075 778.423C538.223 778.494 537.376 778.408 536.282 778.108C536.851 777.849 537.666 777.805 538.752 777.86Z" fill="#C98C4A"/>
<path d="M771.787 172.789C771.377 173.055 770.759 173.132 770.055 172.979C770.506 172.7 771.043 172.649 771.787 172.789Z" fill="#A3652B"/>
<path d="M192.014 315.548C187.458 315.168 182.946 314.452 178.158 313.469C181.838 309.074 185.333 304.337 189.833 300.928C205.288 289.22 220.67 277.323 236.889 266.74C252.851 256.324 269.73 247.298 286.33 237.88C315.889 221.111 347.911 209.884 379.092 196.739C405.863 185.453 432.652 174.092 458.76 161.381C488.909 146.703 518.311 130.491 548.069 115.006C550.621 113.678 553.412 112.807 557.227 111.265C554.204 119.467 548.292 123.276 542.878 126.854C528.66 136.251 514.222 145.394 499.333 153.672C482.644 162.951 465.601 171.676 448.281 179.714C428.253 189.008 407.764 197.312 387.458 206.005C365.932 215.22 344.317 224.23 322.866 233.615C296.159 245.301 270.661 259.385 246.21 275.147C228.414 286.62 211.652 299.7 194.476 312.128C193.459 312.864 192.854 314.17 192.014 315.548Z" fill="#A0672E"/>
<path d="M516.465 247.227C507.295 254.609 498.272 262.184 488.928 269.338C451.339 298.119 413.666 326.789 375.983 355.447C370.181 359.859 364.167 363.992 357.754 367.849C357.523 361.571 351.991 360.264 348.998 356.956C354.407 352.454 359.623 347.696 365.254 343.492C404.025 314.549 442.872 285.709 481.723 256.873C487.167 252.832 492.761 248.994 499.06 245.028C502.64 245.905 505.426 246.879 508.259 247.694C509.372 248.014 510.601 248.152 511.753 248.062C513.336 247.938 514.896 247.519 516.465 247.227Z" fill="#C98C4A"/>
<path d="M251.876 332.984C251.974 332.554 252.072 332.123 252.285 331.38C262.879 323.548 273.125 315.673 283.884 308.576C311.942 290.067 341.696 274.655 372.683 261.681C388.732 254.962 405.006 248.775 421.222 242.458C424.073 241.348 427.137 240.785 430.596 241.049C424.306 244.91 418.209 249.136 411.693 252.567C390.38 263.789 368.845 274.587 347.527 285.799C321.375 299.553 295.802 314.29 272.058 331.992C271.296 332.561 270.729 333.391 269.651 334.486C265.688 337.678 261.958 340.286 258.693 343.384C257.351 344.657 257.012 346.986 256.138 349.309C256.025 354.17 255.992 358.557 255.587 362.952C254.099 361.965 252.653 361.167 251.925 359.942C249.201 355.354 246.711 350.627 244.133 345.952C244.103 345.502 244.073 345.052 243.982 344.268C244.66 341.972 245.398 340.01 246.775 338.157C249.214 339.637 250.923 341.168 252.872 342.279C253.434 342.599 254.686 341.707 255.622 341.371C254.373 338.575 253.124 335.78 251.876 332.984Z" fill="#A0672E"/>
<path d="M727.864 90.7911C713.11 102.053 698.114 112.998 683.141 123.974C668.56 134.661 653.972 145.337 639.443 156.094C618.637 171.499 597.909 187.011 577.089 202.397C570.741 207.087 564.196 211.511 557.381 215.739C557.426 214.376 557.541 213.01 558.283 212.338C563.137 207.948 568.057 203.626 573.085 199.436C586.367 188.367 599.928 177.621 612.927 166.232C617.91 161.867 621.669 156.106 625.986 150.981C626.091 150.661 626.28 150.403 627.183 150.093C631.28 149.14 635.476 149.258 638.076 147.279C645.538 141.597 652.383 135.098 659.374 128.812C659.956 128.289 659.807 126.954 659.998 125.996C669.37 118.978 678.692 111.891 688.132 104.964C695.599 99.4832 703.123 94.0667 710.827 88.93C712.508 87.8095 715.145 87.4221 717.196 87.7143C720.735 88.2183 724.16 89.5202 727.864 90.7911Z" fill="#C98C4A"/>
<path d="M256.217 348.834C257.012 346.986 257.351 344.656 258.693 343.384C261.958 340.285 265.689 337.677 269.592 334.816C296.037 342.128 322.123 349.496 348.604 356.91C351.991 360.263 357.523 361.57 357.414 367.823C357.571 368.203 357.733 368.455 357.487 368.885C357.172 369.545 357.101 369.775 356.688 370.152C351.69 371.16 346.87 373.232 342.416 372.623C333.629 371.422 325.025 368.818 316.385 366.639C307.909 364.501 299.482 362.171 290.852 359.617C286.434 358.165 282.197 357.021 277.644 355.722C270.292 353.323 263.254 351.079 256.217 348.834Z" fill="#E6BE81"/>
<path d="M625.639 151.021C621.669 156.106 617.91 161.867 612.927 166.232C599.928 177.621 586.367 188.367 573.085 199.436C568.057 203.626 563.137 207.948 558.283 212.338C557.541 213.01 557.426 214.376 557.033 215.806C549.502 222.372 542.062 228.685 534.38 234.688C528.788 239.057 522.876 243.017 516.786 247.193C514.895 247.519 513.336 247.938 511.753 248.062C510.601 248.152 509.372 248.014 508.259 247.694C505.426 246.879 502.64 245.904 499.407 244.987C506.298 239.33 513.514 233.54 520.954 228.054C542.553 212.126 564.274 196.362 585.885 180.449C599.079 170.734 612.16 160.863 625.639 151.021Z" fill="#C58644"/>
<path d="M659.683 126.132C659.807 126.954 659.956 128.289 659.374 128.812C652.383 135.098 645.538 141.597 638.076 147.279C635.476 149.258 631.28 149.14 627.401 149.985C629.667 147.819 632.247 145.512 635.04 143.5C643.104 137.692 651.253 132.004 659.683 126.132Z" fill="#C58644"/>
<path d="M256.138 349.309C263.254 351.079 270.292 353.323 277.658 356.132C278.394 358.283 278.587 359.963 279.239 361.441C287.782 380.799 300.395 397.358 315.019 412.414C323.346 420.986 331.954 429.327 340.932 437.206C345.732 441.418 350.209 447.147 357.967 446.004C358.093 452.778 358.219 459.551 358.567 466.663C357.584 475.085 355.736 476.447 347.578 475.122C342.996 474.378 338.429 473.533 333.349 472.322C332.275 471.313 331.669 470.748 331.146 470.114C321.06 457.883 311.631 445.029 300.738 433.565C287.574 419.712 273.877 406.385 265.656 388.844C261.756 380.523 259.15 371.596 255.958 362.944C255.992 358.557 256.025 354.17 256.138 349.309Z" fill="#D0934F"/>
<path d="M291.033 359.925C299.481 362.171 307.909 364.501 316.385 366.639C325.025 368.818 333.629 371.422 342.416 372.623C346.87 373.232 351.69 371.16 356.96 370.145C357.757 369.984 357.938 369.977 358.12 369.971C358.059 373.889 357.943 377.807 357.947 381.725C357.964 398.505 358.015 415.285 357.628 432.526C355.466 432.658 353.732 432.33 351.696 431.854C350.048 430.749 348.509 429.975 347.385 428.804C333.553 414.389 319.241 400.382 306.226 385.259C299.896 377.904 296.02 368.436 291.033 359.925Z" fill="#D29551"/>
<path d="M290.852 359.617C296.02 368.436 299.896 377.904 306.226 385.259C319.241 400.382 333.553 414.39 347.385 428.804C348.509 429.976 350.048 430.749 351.856 432.162C354.209 433.411 356.101 434.205 357.992 434.999C358.013 438.363 358.034 441.727 358.011 445.548C350.209 447.147 345.732 441.419 340.932 437.206C331.953 429.327 323.346 420.986 315.019 412.414C300.395 397.358 287.782 380.799 279.239 361.441C278.587 359.963 278.393 358.283 277.973 356.287C282.197 357.021 286.434 358.165 290.852 359.617Z" fill="#C98C4A"/>
<path d="M358.025 434.666C356.101 434.205 354.209 433.411 352.158 432.31C353.732 432.33 355.466 432.659 357.582 432.993C357.994 433.443 358.025 433.888 358.025 434.666Z" fill="#D0934F"/>
<path d="M358.115 369.748C357.938 369.978 357.757 369.984 357.303 369.997C357.101 369.775 357.172 369.545 357.473 369.034C357.925 368.965 358.06 369.222 358.115 369.748Z" fill="#C98C4A"/>
<path d="M672.113 347.255C655.013 364.045 637.935 380.859 620.808 397.621C590.59 427.194 560.344 456.741 530.092 486.28C528.788 487.553 527.185 488.527 525.933 489.842C523.352 492.553 521.837 495.367 522.487 499.626C523.509 506.324 523.602 513.178 523.867 519.974C524.669 540.571 525.35 561.173 526.124 581.771C526.217 584.248 526.59 586.715 526.597 589.776C525.892 590.534 525.132 590.977 524.996 590.832C507.133 571.856 491.361 551.361 482.536 526.556C478.682 515.722 476.792 504.19 474.426 492.984C484.46 494.7 494.236 495.81 503.649 498.299C511.572 500.394 516.478 496.384 521.858 492.356C520.416 486.936 516.005 485.139 512.021 482.581C513.19 480.836 514.192 479.292 515.485 478.051C530.359 463.772 545.284 449.545 560.183 435.292C575.924 420.232 591.655 405.16 607.385 390.089C623.717 374.441 640.015 358.758 656.395 343.161C660.113 339.62 664.11 336.372 668.372 332.986C670.314 332.732 671.862 332.481 673.707 332.183C673.141 337.539 672.627 342.397 672.113 347.255Z" fill="#BE7F3D"/>
<path d="M672.438 347.146C672.627 342.397 673.141 337.539 673.707 332.183C671.862 332.482 670.314 332.732 668.521 332.688C674.756 326.187 681.263 320.008 687.71 313.768C699.666 302.196 711.584 290.585 723.529 279.002C724.241 278.311 725.101 277.773 725.816 277.084C736.219 267.064 746.609 257.031 757.002 247.001C759.807 244.432 762.611 241.863 766.132 239.149C769.619 238.546 771.129 239.616 771.326 242.517C771.501 245.082 771.832 247.637 772.093 250.196C760.421 261.676 748.75 273.159 737.074 284.636C734.231 287.43 731.367 290.203 728.518 292.991C710.842 310.298 693.171 327.61 675.481 344.902C674.662 345.703 673.673 346.33 672.438 347.146Z" fill="#BB7C3B"/>
<path d="M474.011 492.975C476.792 504.19 478.682 515.722 482.536 526.556C491.361 551.361 507.133 571.856 524.996 590.832C525.132 590.976 525.892 590.534 526.555 590.203C526.793 595.019 526.837 599.998 526.843 605.431C524.088 606.696 521.372 607.507 518.327 607.758C517.271 604.891 517.012 602.272 515.725 600.335C512.253 595.107 508.44 590.094 504.59 585.128C488.563 564.458 474.372 542.789 467.917 517.001C465.677 508.052 463.938 498.978 461.952 489.939C461.934 489.918 461.935 489.863 462.349 489.909C466.176 490.631 469.588 491.308 473.216 492.098C473.706 492.403 473.899 492.658 474.011 492.975Z" fill="#AE7337"/>
<path d="M772.389 250.028C771.832 247.636 771.501 245.082 771.326 242.517C771.129 239.616 769.619 238.546 766.432 239.005C782.938 222.913 799.826 206.782 816.88 190.828C817.857 189.914 820.378 189.903 821.845 190.421C824.602 191.393 827.113 193.059 829.9 194.755C818.92 205.791 807.753 216.493 796.623 227.234C790.39 233.25 784.246 239.357 778.006 245.366C776.337 246.973 774.464 248.368 772.389 250.028Z" fill="#B77837"/>
<path d="M307.326 580.124C311.67 575.294 316.236 570.484 321.131 566.036C323.075 564.27 325.747 563.306 328.537 562.354C329.629 567.653 332.05 570.945 337.156 571.991C360.795 576.83 384.408 581.792 408.073 586.498C411.976 587.274 416.09 586.992 420.549 587.17C424.6 587.51 428.209 587.88 431.914 588.59C433.555 589.972 434.967 591.52 436.668 591.961C442.731 593.536 448.892 594.734 455.016 596.075C452.901 598.657 450.661 601.15 448.726 603.86C447.843 605.097 447.561 606.761 447.002 608.617C438.869 607.578 430.718 606.272 422.617 604.707C399.268 600.197 375.902 595.767 352.627 590.904C344.982 589.307 337.655 586.237 330.064 584.307C325.288 583.093 320.282 582.805 315.399 581.984C312.804 581.548 310.251 580.863 307.326 580.124Z" fill="#6B4319"/>
<path d="M389.456 629.983C389.697 628.24 390.36 626.502 391.029 624.405C393.074 619.499 396.812 620.53 400.353 621.321C423.861 626.575 447.355 631.895 470.86 637.165C483.664 640.035 496.482 642.849 509.651 645.839C508.557 646.662 507.043 648.025 505.667 647.897C491.874 646.613 478.052 645.448 464.34 643.525C449.325 641.419 434.391 638.686 419.47 635.96C410.868 634.388 402.366 632.272 393.809 630.444C392.525 630.17 391.19 630.134 389.456 629.983Z" fill="#D0934F"/>
<path d="M379.818 616.651C378.927 619.797 377.745 622.695 376.29 625.804C361.392 621.364 346.718 616.855 332.181 611.942C329.217 610.94 326.766 608.421 324.017 606.246C339.082 608.687 354.21 611.47 369.332 614.291C372.742 614.927 376.129 615.696 379.818 616.651Z" fill="#CF914E"/>
<path d="M513.687 646.931C513.754 647.496 513.495 648.026 513.236 648.555C512.849 648.176 512.462 647.796 512.065 647.092C512.489 646.811 512.925 646.853 513.687 646.931Z" fill="#D0934F"/>
<path d="M756.641 246.961C746.609 257.031 736.219 267.064 725.816 277.084C725.101 277.773 724.241 278.311 723.529 279.002C711.584 290.585 699.666 302.196 687.71 313.768C681.263 320.008 674.756 326.187 668.127 332.691C664.11 336.372 660.113 339.62 656.395 343.161C640.015 358.758 623.717 374.441 607.385 390.089C591.655 405.16 575.924 420.232 560.183 435.292C545.284 449.545 530.359 463.772 515.485 478.051C514.192 479.292 513.19 480.836 511.587 482.599C499.427 481.016 487.734 479.075 475.641 477.075C472.156 476.36 469.07 475.704 465.583 475.003C461.121 474.029 457.061 473.099 453 472.168C457.116 465.603 460.811 458.716 465.494 452.583C468.762 448.302 473.274 444.928 477.419 441.369C487.606 432.626 497.89 423.997 508.156 415.346C519.815 405.521 531.455 395.671 543.181 385.926C557.202 374.274 571.296 362.709 585.377 351.13C597.154 341.445 608.948 331.78 620.753 322.129C636.405 309.334 652.068 296.552 667.743 283.785C670.555 281.495 673.449 279.303 676.65 277.024C679.849 280.949 681.627 281.003 684.345 277.439C686.915 274.068 687.295 268.68 692.89 268.04C693.832 267.932 694.755 267.529 695.691 267.51C698.959 267.443 702.229 267.484 705.498 267.484C705.537 266.9 705.576 266.316 705.615 265.733C703.823 265.114 702.032 264.495 699.412 263.59C703.322 261.94 706.183 260.615 709.144 259.573C709.798 259.343 711.345 259.897 711.563 260.452C713.442 265.223 718.093 263.575 721.458 264.742C722.377 265.061 723.879 263.945 725.026 263.325C730.717 260.242 736.394 257.134 742.035 253.96C743.082 253.371 744.463 252.619 744.797 251.638C747.882 242.585 748.87 242.13 756.641 246.961Z" fill="#AA682B"/>
<path d="M431.818 588.25C428.209 587.88 424.6 587.51 420.504 586.741C417.305 573.62 415.016 560.79 411.781 548.203C406.682 528.363 400.762 508.735 395.574 488.916C393.518 481.059 390.523 472.925 395.779 464.964C396.252 464.248 395.941 463.016 395.995 462.023C395.995 462.023 396.418 461.885 396.635 461.834C401.06 463.478 403.908 468.38 409.745 467.51C408.76 471.584 407.409 475.246 406.039 479.353C406.15 481.779 405.994 483.831 406.462 485.729C408.4 493.585 410.544 501.391 412.581 509.224C418.498 531.982 424.451 554.732 430.255 577.519C431.142 581.003 431.315 584.668 431.818 588.25Z" fill="#AE7337"/>
<path d="M406.059 478.908C407.409 475.246 408.76 471.584 410.172 467.575C412.303 466.702 414.49 465.453 416.423 465.767C428.35 467.704 440.219 469.993 452.554 472.166C457.061 473.098 461.121 474.029 465.584 475.379C464.636 480.486 463.285 485.175 461.935 489.863C461.935 489.863 461.934 489.918 461.545 489.882C449.666 487.881 438.144 486.087 426.7 483.886C419.757 482.551 412.935 480.588 406.059 478.908Z" fill="#D5A667"/>
<path d="M406.039 479.353C412.935 480.589 419.757 482.552 426.7 483.887C438.144 486.087 449.666 487.881 461.562 489.904C463.938 498.978 465.677 508.052 467.917 517.001C474.372 542.789 488.563 564.458 504.59 585.129C508.44 590.094 512.253 595.107 515.725 600.336C517.012 602.273 517.271 604.891 518.001 607.604C503.43 605.212 488.858 602.413 474.285 599.621C468.132 598.441 461.975 597.277 455.418 596.09C448.892 594.734 442.731 593.536 436.668 591.962C434.968 591.52 433.555 589.972 431.914 588.591C431.315 584.668 431.142 581.003 430.255 577.52C424.451 554.732 418.498 531.982 412.581 509.224C410.544 501.391 408.4 493.586 406.462 485.729C405.994 483.831 406.15 481.779 406.039 479.353Z" fill="#BE7F3D"/>
<path d="M674.96 582.359C675.81 581.082 676.623 580.171 677.715 579.129C682.073 578.68 684.193 580.047 681.688 585.58C684.526 584.174 686.05 583.245 687.697 582.664C688.857 582.254 690.184 582.317 691.436 582.169C691.011 583.496 690.953 585.177 690.086 586.079C688.086 588.162 685.832 590.088 683.398 591.629C682.23 592.369 679.606 592.796 679.046 592.149C677.119 589.919 675.757 587.184 674.328 584.561C674.116 584.172 674.704 583.348 674.96 582.359Z" fill="#7F4F21"/>
<path d="M656.164 633.096C656.621 634.907 657.416 637.258 656.578 638.318C655.791 639.312 653.278 638.941 651.525 639.17C651.335 638.628 651.146 638.087 650.956 637.545C652.567 636.054 654.179 634.563 656.164 633.096Z" fill="#7F4F21"/>
<path d="M666.061 622.224C666.019 620.1 666.019 618.349 666.019 616.599C666.48 616.366 666.94 616.134 667.401 615.902C668.521 617.349 669.642 618.797 670.763 620.244C669.21 621.028 667.657 621.813 666.061 622.224Z" fill="#7F4F21"/>
<path d="M692.72 589.752C692.971 592.584 693.685 595.409 688.92 596.094C689.437 593.326 689.811 591.187 690.331 589.083C690.349 589.007 691.794 589.284 692.72 589.752Z" fill="#7F4F21"/>
<path d="M662.045 605.396C662.287 605.791 662.285 606.184 662.255 606.575C662.254 606.586 661.949 606.574 661.786 606.572C661.79 606.179 661.794 605.786 662.045 605.396Z" fill="#7F4F21"/>
<path d="M325.876 529.048C319.472 533.647 312.869 537.995 306.707 542.897C294.17 552.87 281.876 563.149 269.471 573.289C265.053 576.901 261.39 581.778 254.658 581.71C254.624 578.334 255.169 575.283 255.1 572.246C254.674 553.512 254.11 534.781 253.686 515.641C253.504 510.818 253.228 506.404 252.951 501.99C252.771 496.241 252.591 490.493 252.243 484.009C251.397 481.796 250.72 480.319 250.099 478.508C251.521 476.552 252.887 474.932 254.913 472.528C248.509 471.393 243.312 470.639 238.192 469.531C227.702 467.262 217.268 464.729 206.775 462.47C203.999 461.873 200.781 460.607 198.535 464.287C197.099 464.14 196.052 464.06 194.997 463.591C192.996 458.881 187.828 457.786 184.58 461.065C174.456 458.674 164.741 456.302 154.704 453.796C153.257 453.432 152.131 453.203 150.82 452.732C150.051 452.405 149.468 452.318 148.564 452.118C147.168 451.647 146.093 451.291 145.004 450.539C143.234 444.199 140.724 438.167 146.963 433.151C160.044 435.851 173.121 438.568 186.21 441.228C187.608 441.513 189.073 441.468 191.165 441.29C195.657 439.812 199.402 439.379 202.808 442.657C204.232 444.007 205.466 445.536 206.984 445.909C216.006 448.123 225.093 450.067 234.157 452.107C245.774 454.722 257.389 457.341 268.97 460.308C264.895 464.349 260.855 468.04 256.229 472.267C258.618 473.61 260.102 474.595 261.703 475.32C275.271 481.466 288.788 487.732 302.474 493.604C309.128 496.459 316.109 498.551 323.026 501.396C324.033 510.885 324.954 519.966 325.876 529.048Z" fill="#75491B"/>
<path d="M78.4919 564.84C76.4851 563.859 74.9528 562.605 73.2021 562.082C65.5983 559.81 57.8929 557.876 50.3023 555.563C46.4197 554.38 41.9426 553.558 41.071 548.423C40.119 542.814 43.2699 539.364 47.7748 536.338C81.612 544.046 115.24 552.041 148.887 559.953C156.933 561.845 165.044 563.462 173.792 565.487C177.982 566.807 181.504 567.846 185.403 568.987C204.374 573.705 222.949 578.397 241.578 582.863C244.888 583.657 248.424 583.51 251.855 583.797C252.445 584.939 253.036 586.08 254.054 588.049C249.346 592.49 244.444 597.114 239.233 601.879C230.877 600.025 222.831 598.03 213.977 596.002C210.666 595.308 208.178 594.587 205.659 593.996C185.528 589.276 165.406 584.513 145.225 580.015C143.692 579.673 141.727 581.268 139.963 581.962C135.117 583.966 131.587 582.254 128.515 577.589C127.234 576.44 126.461 575.343 125.5 575.141C112.355 572.387 99.1844 569.756 86.0202 567.094C83.6355 566.363 81.2507 565.633 78.4919 564.84Z" fill="#7D4E1F"/>
<path d="M220.013 471.054C218.236 479.653 211.867 485.446 206.59 491.629C195.96 504.087 183.612 514.764 168.546 521.688C143.684 533.116 119.956 531.071 97.561 515.1C71.6546 496.626 57.1371 470.422 47.2343 441.077C47.1383 440.792 47.2706 440.431 47.3788 439.061C50.3238 439.371 53.26 439.681 56.8699 440.093C58.0261 440.467 58.5085 440.738 58.9995 441.394C60.6835 446.066 61.8691 450.633 64.1304 454.585C69.8271 464.539 76.0088 474.217 82.132 484.315C111.403 523.04 153.263 528.963 189.316 491.872C197.719 485.165 203.997 477.116 209.382 468.016C213.186 469.028 216.6 470.041 220.013 471.054Z" fill="#C28341"/>
<path d="M185.026 568.885C181.504 567.846 177.982 566.807 174.214 565.524C174.255 558.977 180.132 557.433 183.799 554.243C197.285 542.508 210.826 530.797 224.927 519.822C233.469 513.174 243.079 507.899 252.58 501.998C253.228 506.404 253.504 510.817 253.325 515.626C247.086 519.342 240.814 522.039 235.613 526.106C222.305 536.512 209.432 547.477 196.48 558.331C192.505 561.662 188.835 565.357 185.026 568.885Z" fill="#C58644"/>
<path d="M58.9909 441.009C58.5085 440.738 58.0262 440.467 57.2914 440.082C56.7414 435.91 57.1401 432.883 62.6489 434.816C64.0111 435.293 65.9515 434.123 67.808 433.384C79.0553 435.367 90.1207 437.675 101.588 440.407C102.327 444.553 102.664 448.277 102.761 452.198C88.0102 448.6 73.5006 444.805 58.9909 441.009Z" fill="#D5A667"/>
<path d="M220.393 471.065C216.6 470.041 213.186 469.028 209.072 467.863C207.253 467.503 206.136 467.295 204.707 466.918C202.572 465.951 200.747 465.152 198.923 464.354C200.781 460.606 203.999 461.872 206.775 462.47C217.268 464.729 227.702 467.261 238.192 469.531C243.312 470.639 248.509 471.393 254.913 472.527C252.887 474.931 251.521 476.552 249.836 478.418C249.022 478.411 248.528 478.158 248.034 477.906C241.147 476.265 234.254 474.65 227.377 472.969C225.154 472.426 222.973 471.712 220.393 471.065Z" fill="#7F4F21"/>
<path d="M248.023 478.311C248.528 478.159 249.022 478.411 249.779 478.753C250.72 480.319 251.397 481.796 252.081 483.626C248.246 484.147 248.119 481.438 248.023 478.311Z" fill="#C58644"/>
<path d="M325.934 529.472C324.954 519.966 324.032 510.884 323.057 500.951C322.999 495.365 322.995 490.631 322.991 485.897C332.271 487.668 341.634 489.097 350.796 491.347C355.712 492.554 358.967 490.945 362.53 488.053C373.351 479.271 384.365 470.726 395.649 462.056C395.941 463.015 396.252 464.248 395.779 464.964C390.523 472.925 393.518 481.059 395.574 488.915C400.762 508.734 406.682 528.363 411.781 548.203C415.016 560.79 417.305 573.62 420.062 586.77C416.09 586.992 411.976 587.274 408.073 586.498C384.408 581.792 360.795 576.83 337.156 571.991C332.05 570.945 329.629 567.653 328.91 562.347C327.887 551.275 326.94 540.586 325.934 529.472Z" fill="#BE7F3D"/>
<path d="M202.748 442.303C199.402 439.379 195.657 439.812 191.421 441.021C194.126 430.784 196.643 420.306 200.466 410.327C207.164 392.843 219.611 380.007 235.442 370.322C246.246 363.714 246.226 363.737 243.632 351.258C243.311 349.716 243.535 348.061 243.82 346.205C246.711 350.627 249.2 355.354 251.925 359.942C252.653 361.167 254.099 361.965 255.587 362.952C259.15 371.597 261.756 380.523 265.656 388.844C273.877 406.385 287.574 419.713 300.737 433.565C311.631 445.029 321.06 457.884 331.146 470.115C331.669 470.748 332.275 471.313 332.945 472.194C330.626 472.008 328.202 471.538 325.059 470.891C321.214 469.913 318.087 469.112 314.868 467.955C304.935 455.984 295.769 443.701 285.087 432.92C270.84 418.542 259.561 402.414 251.086 384.171C249.995 381.822 248.962 379.447 247.724 376.689C235.834 382.511 226.219 389.907 218.741 400.301C209.636 412.955 206.051 427.534 202.748 442.303Z" fill="#C28341"/>
<path d="M314.96 468.31C318.087 469.112 321.214 469.913 324.679 470.899C324.347 475.728 323.676 480.371 322.998 485.455C322.995 490.631 322.999 495.366 322.972 500.544C316.109 498.551 309.128 496.459 302.474 493.604C288.788 487.732 275.271 481.465 261.703 475.32C260.102 474.594 258.618 473.61 256.229 472.267C260.855 468.039 264.895 464.349 269.388 460.296C270.818 460.074 271.801 460.18 272.769 460.362C286.834 463.005 300.896 465.659 314.96 468.31Z" fill="#6B4319"/>
<path d="M146.813 432.834C140.724 438.167 143.233 444.199 144.61 450.574C134.839 448.622 125.446 446.241 116.053 443.859C117.264 442.177 118.21 440.192 119.731 438.864C126.01 433.377 132.449 428.071 138.88 422.759C139.449 422.289 140.381 422.258 141.496 422.048C143.452 425.554 145.057 429.035 146.813 432.834Z" fill="#8B5724"/>
<path d="M139.979 582.368C141.727 581.268 143.692 579.673 145.225 580.015C165.406 584.513 185.528 589.276 205.659 593.996C208.178 594.587 210.666 595.308 213.575 596.014C213.01 596.705 212.021 597.933 211.07 597.904C202.616 597.646 194.125 597.561 185.728 596.652C174.893 595.478 164.119 593.687 153.35 591.966C148.791 591.238 144.312 590.012 139.403 589.003C139.338 586.921 139.666 584.847 139.979 582.368Z" fill="#D0934F"/>
<path d="M185.403 568.987C188.835 565.357 192.505 561.662 196.48 558.331C209.432 547.477 222.305 536.513 235.613 526.106C240.814 522.039 247.086 519.342 253.231 516.035C254.11 534.781 254.674 553.512 255.1 572.246C255.169 575.283 254.624 578.334 254.272 581.724C253.527 582.493 252.873 582.917 252.037 583.569C248.424 583.51 244.888 583.657 241.578 582.863C222.949 578.397 204.374 573.705 185.403 568.987Z" fill="#CF914E"/>
<path d="M481.866 741.695C481.043 741.556 480.074 741.129 479.046 740.361C479.898 740.482 480.81 740.945 481.866 741.695Z" fill="#BB7C3B"/>
<path d="M115.658 443.898C125.446 446.241 134.839 448.622 144.625 450.969C146.093 451.291 147.168 451.647 148.584 452.414C148.944 453.222 148.964 453.621 149.139 454.382C149.518 457.132 149.742 459.519 149.555 461.922C146.762 461.618 144.381 461.297 141.735 460.695C134.641 458.953 127.811 457.491 120.64 455.987C119.218 455.607 118.137 455.269 117.039 454.557C115.459 449.907 114.891 444.82 108.602 444.541C108.011 444.515 107.494 442.811 106.943 441.886C109.716 442.57 112.489 443.253 115.658 443.898Z" fill="#D5A667"/>
<path d="M106.645 441.748C107.494 442.811 108.011 444.515 108.602 444.541C114.89 444.82 115.459 449.907 116.629 454.573C112.49 454.31 108.745 453.657 104.834 452.758C104.112 452.342 103.557 452.172 103.002 452.001C102.664 448.277 102.327 444.554 101.98 440.442C103.43 440.573 104.888 441.091 106.645 441.748Z" fill="#D29551"/>
<path d="M86.0057 567.466C99.1844 569.755 112.355 572.386 125.5 575.141C126.461 575.342 127.234 576.44 128.199 577.484C127.574 580.315 126.845 582.784 126.068 585.636C111.706 583.149 97.3919 580.279 82.5552 577.305C84.0034 573.315 84.9973 570.577 86.0057 567.466Z" fill="#D0934F"/>
<path d="M53.9591 560.361C60.7152 561.335 67.4336 562.675 74.5597 564.057C73.9799 567.142 72.9924 570.184 71.9963 573.603C71.5525 573.992 71.1173 574.004 70.3561 574.025C63.7623 572.103 57.4944 570.172 51.0165 568.176C52.1571 565.251 53.0392 562.989 53.9591 560.361Z" fill="#CF914E"/>
<path d="M251.584 333.11C253.124 335.78 254.373 338.575 255.622 341.371C254.686 341.707 253.434 342.599 252.872 342.278C250.923 341.168 249.214 339.637 247.125 338.049C248.322 336.3 249.808 334.769 251.584 333.11Z" fill="#B77837"/>
<path d="M476.041 477.134C487.734 479.075 499.427 481.016 511.555 482.94C516.005 485.14 520.416 486.937 521.858 492.356C516.478 496.385 511.572 500.394 503.649 498.299C494.236 495.81 484.46 494.7 474.426 492.984C473.899 492.658 473.706 492.404 473.215 491.676C474.012 486.473 475.027 481.803 476.041 477.134Z" fill="#D5A667"/>
<path d="M475.641 477.075C475.027 481.803 474.012 486.473 472.999 491.564C469.588 491.309 466.176 490.632 462.349 489.909C463.285 485.175 464.636 480.487 465.985 475.423C469.07 475.704 472.156 476.36 475.641 477.075Z" fill="#D29551"/>
<path d="M314.868 467.954C300.896 465.659 286.834 463.005 272.769 460.362C271.801 460.18 270.818 460.074 269.424 459.946C257.389 457.341 245.774 454.722 234.157 452.107C225.093 450.067 216.005 448.123 206.984 445.908C205.466 445.536 204.232 444.006 202.808 442.657C206.051 427.533 209.636 412.955 218.741 400.3C226.219 389.906 235.834 382.511 247.724 376.688C248.962 379.446 249.995 381.822 251.086 384.17C259.561 402.414 270.84 418.541 285.087 432.92C295.769 443.701 304.935 455.984 314.868 467.954Z" fill="#D29551"/>
<path d="M198.535 464.287C200.747 465.152 202.572 465.951 204.605 467.304C203.145 468.241 201.444 469.056 199.812 468.936C187.87 468.057 175.942 466.99 163.9 465.766C163.59 465.278 163.328 465.095 162.962 464.678C162.279 463.914 161.639 463.47 160.647 462.983C156.576 461.085 154.301 458.385 155.026 453.93C164.741 456.302 174.456 458.674 184.834 461.323C188.666 462.395 191.835 463.187 195.004 463.98C196.052 464.06 197.099 464.14 198.535 464.287Z" fill="#C28341"/>
<path d="M163.005 464.998C163.328 465.095 163.59 465.278 163.858 466.134C162.865 467.792 161.805 468.864 160.746 469.936C159.829 468.956 158.913 467.975 157.987 466.609C155.307 464.785 152.636 463.345 149.966 461.906C149.742 459.519 149.518 457.132 149.442 454.355C150.062 453.634 150.533 453.303 151.005 452.973C152.131 453.203 153.257 453.432 154.704 453.796C154.3 458.385 156.576 461.085 160.691 463.301C161.726 464.107 162.366 464.552 163.005 464.998Z" fill="#D0934F"/>
<path d="M194.997 463.591C191.835 463.187 188.666 462.395 185.242 461.343C187.828 457.786 192.996 458.88 194.997 463.591Z" fill="#7F4F21"/>
<path d="M150.82 452.732C150.533 453.303 150.062 453.634 149.287 453.992C148.964 453.621 148.944 453.222 148.905 452.527C149.468 452.318 150.051 452.405 150.82 452.732Z" fill="#C28341"/>
<path d="M189.006 492.01C153.263 528.963 111.403 523.04 82.2803 483.975C83.2759 481.577 83.9287 478.679 85.301 478.284C90.5577 476.774 93.4094 472.735 96.3475 468.862C97.8776 466.845 99.0225 465.753 101.518 466.929C106.07 469.074 109.246 467.689 111.306 463.142C116.072 466.195 120.536 469.099 125.008 472.379C125.936 473.774 126.671 475.13 127.809 475.759C134.438 479.427 141.67 479.016 148.785 478.116C152.548 477.64 156.121 475.792 159.88 475.12C163.836 474.413 167.912 474.383 171.934 474.032C174.798 473.782 177.659 473.491 179.922 473.275C181.242 476.466 181.617 480.347 183.468 481.271C188.35 483.709 188.49 487.775 189.006 492.01Z" fill="#D0934F"/>
<path d="M111.003 462.992C109.246 467.689 106.07 469.074 101.518 466.929C99.0226 465.753 97.8776 466.846 96.3475 468.862C93.4094 472.735 90.5577 476.774 85.301 478.284C83.9287 478.679 83.2759 481.577 82.1444 483.665C76.0089 474.217 69.8272 464.539 64.1305 454.585C61.8692 450.633 60.6836 446.066 58.9996 441.394C73.5006 444.805 88.0102 448.6 102.761 452.199C103.557 452.172 104.112 452.342 104.87 453.107C107.05 456.798 109.026 459.895 111.003 462.992Z" fill="#CF914E"/>
<path d="M189.316 491.872C188.49 487.775 188.35 483.709 183.468 481.271C181.617 480.347 181.242 476.467 179.922 473.276C177.659 473.491 174.798 473.782 171.934 474.032C167.912 474.383 163.836 474.414 159.88 475.121C156.121 475.793 152.548 477.64 148.785 478.116C141.67 479.017 134.438 479.427 127.808 475.759C126.671 475.13 125.936 473.775 125.389 472.424C131.91 474.976 138.32 475.979 144.735 473.502C149.311 471.736 153.587 469.191 157.996 466.994C158.913 467.975 159.829 468.956 160.746 469.936C161.805 468.864 162.865 467.792 163.967 466.352C175.942 466.991 187.87 468.057 199.812 468.936C201.444 469.056 203.145 468.241 204.916 467.473C206.136 467.295 207.254 467.504 208.682 467.865C203.997 477.116 197.719 485.166 189.316 491.872Z" fill="#CF914E"/>
<path d="M157.987 466.609C153.587 469.191 149.311 471.735 144.735 473.502C138.32 475.979 131.91 474.976 125.381 472.048C120.536 469.099 116.072 466.195 111.306 463.142C109.026 459.895 107.05 456.798 105.037 453.352C108.745 453.657 112.49 454.31 116.645 454.947C118.137 455.269 119.218 455.607 120.685 456.332C124.403 458.983 127.466 462.076 131.146 463.271C134.627 464.402 139.356 466.133 141.999 460.976C144.381 461.297 146.762 461.618 149.555 461.922C152.636 463.345 155.307 464.785 157.987 466.609Z" fill="#C58644"/>
<path d="M141.735 460.695C139.356 466.133 134.627 464.402 131.146 463.271C127.466 462.076 124.403 458.983 121.025 456.374C127.811 457.491 134.641 458.953 141.735 460.695Z" fill="#D0934F"/>
<path d="M162.962 464.678C162.366 464.552 161.726 464.106 161.042 463.343C161.639 463.47 162.279 463.914 162.962 464.678Z" fill="#CF914E"/>
</svg>
